<?xml version="1.0" encoding="UTF-8" standalone="no"?>
<!-- Generator: Gravit.io -->

<svg
   style="isolation:isolate"
   viewBox="0 0 189.024 189.024"
   width="189.024"
   height="189.024"
   version="1.1"
   id="svg65"
   sodipodi:docname="logo.svg"
   xmlns:inkscape="http://www.inkscape.org/namespaces/inkscape"
   xmlns:sodipodi="http://sodipodi.sourceforge.net/DTD/sodipodi-0.dtd"
   xmlns="http://www.w3.org/2000/svg"
   xmlns:svg="http://www.w3.org/2000/svg">
  <sodipodi:namedview
     id="namedview67"
     pagecolor="#ffffff"
     bordercolor="#666666"
     borderopacity="1.0"
     inkscape:showpageshadow="2"
     inkscape:pageopacity="0.0"
     inkscape:pagecheckerboard="0"
     inkscape:deskcolor="#d1d1d1"
     showgrid="false" />
  <defs
     id="defs12">
    <clipPath
       id="_clipPath_gjluYydYhCR1rW934L2JyrhK6ePrqdHy">
      <rect
         width="189.024"
         height="189.024"
         id="rect9" />
    </clipPath>
  </defs>
  <g
     clip-path="url(#_clipPath_gjluYydYhCR1rW934L2JyrhK6ePrqdHy)"
     id="g63">
    <path
       d=" M 0 0 L 189.024 0 L 189.024 189.024 L 0 189.024 L 0 0 Z "
       fill-rule="evenodd"
       fill="rgb(254,254,254)"
       id="path14"
       style="fill:#000000" />
    <path
       d=" M 142.845 102.6 C 145.966 104.586 149.655 106.005 153.912 106.288 C 158.168 106.572 162.425 106.288 166.398 105.153 C 170.37 103.734 173.775 101.464 176.329 98.91 C 178.883 96.073 180.302 92.667 180.585 88.694 C 180.87 85.289 180.585 81.6 179.167 77.911 C 178.032 74.222 176.329 71.101 173.775 68.263 C 171.221 65.709 168.667 64.006 165.83 63.155 C 161.006 61.737 156.182 62.02 151.074 63.439 C 146.533 64.858 143.128 66.845 140.574 69.399 C 138.021 72.804 136.034 76.209 135.183 79.614 C 134.332 83.303 134.615 87.843 136.034 92.667 C 137.169 96.924 139.44 100.045 142.845 102.6 Z "
       fill-rule="evenodd"
       fill="rgb(250,175,59)"
       id="path16" />
    <path
       d=" M 85.524 73.087 C 83.538 73.56 81.552 74.033 79.565 74.506 C 77.295 75.358 75.592 76.209 74.173 77.06 C 71.619 79.046 69.633 81.317 68.214 84.154 C 66.795 86.991 66.227 90.113 66.227 93.235 C 66.227 96.356 67.079 99.194 68.498 101.748 C 69.916 104.586 72.187 106.572 75.024 107.991 C 78.146 109.693 81.551 110.261 84.956 109.693 C 88.645 109.41 91.767 107.991 94.321 105.437 C 97.158 102.883 98.861 99.194 99.145 94.938 C 99.428 90.681 98.294 86.991 95.74 83.871 C 94.037 81.6 92.05 80.181 90.064 79.614 C 88.078 79.046 86.091 79.046 83.537 79.614 C 81.551 79.898 79.565 80.749 77.862 82.168 C 77.055 82.924 76.393 83.681 75.875 84.438 C 75.686 84.343 75.497 84.249 75.308 84.154 C 75.592 81.6 77.011 79.33 79.565 77.627 C 81.834 76.209 84.673 75.358 87.794 75.074 C 91.483 74.79 94.604 75.925 97.726 78.195 C 100.28 80.465 102.55 83.303 103.969 86.708 C 105.388 90.397 105.955 94.086 105.671 97.775 C 105.388 101.748 103.969 105.153 101.982 108.274 C 99.428 111.964 96.023 114.801 91.767 116.787 C 85.808 119.341 79.565 119.058 73.321 115.936 C 66.795 112.815 62.822 108.274 60.836 101.748 C 59.417 96.356 59.701 91.248 61.688 85.857 C 63.957 80.465 67.362 76.492 72.187 73.939 C 74.74 72.519 77.295 71.952 79.848 71.952 C 80.983 71.952 82.97 72.236 85.524 73.087 Z "
       fill="rgb(55,53,53)"
       id="path18" />
    <path
       d=" M 102.55 56.061 C 103.401 59.278 104.253 62.494 105.104 65.709 C 105.955 69.399 107.09 72.236 108.509 74.79 C 108.604 74.6 108.698 74.411 108.793 74.222 C 109.454 68.831 110.117 63.439 110.779 58.047 C 110.968 58.047 111.157 58.047 111.347 58.047 C 113.333 64.006 114.468 68.831 114.752 71.952 C 115.035 76.492 113.901 79.614 111.347 81.6 C 110.212 82.452 108.793 82.735 107.374 82.168 C 105.955 81.884 104.536 81.032 103.685 79.614 C 102.266 76.776 101.415 73.939 101.131 70.817 C 100.847 67.696 101.415 62.588 102.55 56.061 Z "
       fill="rgb(55,53,53)"
       id="path20" />
    <path
       d=" M 81.551 95.505 C 82.781 96.426 83.849 96.833 84.908 96.495 C 85.564 95.619 86.884 93.026 84.956 92.384 C 84.105 91.816 83.254 91.816 82.402 92.384 C 81.551 93.235 81.267 94.086 81.551 95.505 Z "
       fill="rgb(55,53,53)"
       id="path22" />
    <path
       d=" M 155.331 46.98 C 155.331 48.967 156.182 50.102 157.6 50.954 C 159.019 51.521 160.439 51.521 161.29 50.67 C 163.559 48.683 163.559 46.697 161.573 44.427 C 159.886 42.739 154.722 44.548 155.331 46.98 Z "
       fill="rgb(55,53,53)"
       id="path24" />
    <path
       d=" M 146.818 44.143 C 150.506 45.846 152.209 47.832 152.493 49.819 C 152.493 51.521 151.358 53.224 149.371 55.21 C 147.29 56.723 145.209 58.237 143.128 59.75 C 142.371 60.412 141.615 61.075 140.858 61.737 C 145.02 65.142 149.182 68.547 153.344 71.952 C 153.249 72.236 153.155 72.52 153.06 72.804 C 149.182 71.006 145.304 69.209 141.426 67.412 C 138.305 65.993 136.318 64.574 135.467 63.155 C 134.9 61.737 134.9 60.601 135.751 59.75 C 138.305 57.102 140.858 54.453 143.413 51.805 C 143.696 51.521 143.98 51.238 144.264 50.954 C 143.696 50.859 143.128 50.765 142.561 50.67 C 140.858 50.576 139.156 50.481 137.454 50.386 C 134.994 50.859 132.535 51.332 130.075 51.805 C 129.224 52.089 128.373 52.373 127.521 52.656 C 127.332 52.846 127.143 53.035 126.954 53.224 C 126.765 56.156 126.576 59.089 126.386 62.02 C 125.251 76.209 123.548 88.978 120.995 100.613 C 120.332 101.842 119.67 103.072 119.008 104.302 C 119.008 97.207 119.008 90.113 119.008 83.019 C 119.008 75.925 119.008 68.831 119.008 61.737 C 118.914 58.616 118.819 55.494 118.725 52.373 C 118.725 50.954 119.292 49.534 120.143 48.116 C 120.995 46.697 122.414 45.846 123.833 45.278 C 126.386 43.86 129.224 43.008 132.346 42.724 C 135.561 42.819 138.777 42.914 141.993 43.008 C 143.696 43.292 145.399 43.575 146.818 44.143 Z "
       fill="rgb(55,53,53)"
       id="path26" />
    <path
       d=" M 90.064 39.603 C 89.496 42.157 89.496 44.143 90.347 45.562 C 90.632 46.413 90.915 46.697 91.483 46.98 C 92.618 47.265 94.037 46.98 95.456 46.129 C 96.875 45.278 98.861 44.143 100.847 42.157 C 100.942 42.157 101.036 42.157 101.131 42.157 C 99.428 46.98 96.591 49.534 92.335 50.102 C 89.78 50.386 88.078 49.251 86.659 46.413 C 85.24 43.292 85.24 40.17 86.375 36.481 C 87.794 32.225 90.347 29.671 94.037 28.82 C 95.172 28.536 96.196 28.709 96.875 29.387 C 98.01 30.239 98.294 31.657 97.726 33.644 C 97.158 35.914 96.023 37.9 94.321 39.319 C 93.469 40.17 92.335 40.738 91.483 40.738 C 90.915 40.738 90.632 40.454 90.347 40.17 C 90.253 39.981 90.158 39.792 90.064 39.603 Z "
       fill="rgb(55,53,53)"
       id="path28" />
    <path
       d=" M 94.888 32.225 C 94.561 32.018 93.968 32.181 93.469 32.793 C 92.335 33.927 91.483 35.63 90.632 38.184 C 90.632 38.278 90.632 38.373 90.632 38.467 C 90.726 38.846 90.821 39.225 90.915 39.603 C 91.01 39.508 91.104 39.414 91.199 39.319 C 92.335 38.752 93.186 37.616 94.037 36.198 C 94.604 35.062 94.888 33.644 94.888 32.225 Z "
       fill="rgb(55,53,53)"
       id="path30" />
    <path
       d=" M 73.889 21.726 C 75.308 24.28 76.443 26.549 76.727 28.536 C 77.578 32.793 77.862 37.333 77.862 41.873 C 77.862 44.049 77.862 46.224 77.862 48.399 C 77.957 49.251 78.051 50.102 78.146 50.954 C 78.24 51.238 78.335 51.521 78.429 51.805 C 78.525 51.805 78.619 51.805 78.714 51.805 C 81.078 50.954 83.443 50.102 85.808 49.251 C 85.902 49.441 85.997 49.63 86.091 49.819 C 84.862 50.954 83.632 52.089 82.402 53.224 C 80.983 54.642 79.281 55.21 77.862 55.493 C 77.39 55.399 76.917 55.304 76.443 55.21 C 75.308 54.359 74.457 52.94 73.606 50.954 C 73.322 49.156 73.039 47.359 72.754 45.562 C 72.849 41.873 72.943 38.185 73.038 34.495 C 73.228 31.374 73.417 28.253 73.606 25.131 C 73.7 23.996 73.795 22.861 73.889 21.726 Z "
       fill="rgb(55,53,53)"
       id="path32" />
    <path
       d=" M 30.473 93.518 C 30.359 93.634 29.683 94.244 29.562 94.357 C 28.97 94.912 28.728 95.674 28.487 96.64 C 28.581 96.735 28.676 96.829 28.771 96.924 C 29.622 96.64 30.19 96.356 30.473 95.789 C 30.757 94.938 30.757 94.37 30.473 93.518 Z "
       fill="rgb(55,53,53)"
       id="path34" />
    <path
       d=" M 28.487 97.492 C 28.203 98.91 28.487 99.478 29.338 99.761 C 29.906 99.572 30.474 99.383 31.041 99.194 C 31.703 98.815 32.365 98.437 33.027 98.059 C 33.121 98.153 33.216 98.248 33.31 98.343 C 33.027 98.721 32.743 99.099 32.459 99.478 C 31.324 100.897 30.19 101.464 29.054 101.18 C 27.919 100.897 27.068 100.045 26.784 98.626 C 26.5 97.492 26.5 96.356 26.784 95.221 C 27.068 93.802 27.919 92.951 28.771 92.384 C 30.19 91.532 31.041 91.532 31.892 92.384 C 32.459 93.235 32.407 94.346 31.892 95.505 C 31.272 96.901 30.19 97.811 28.771 97.527 C 28.676 97.527 28.581 97.492 28.487 97.492 Z "
       fill="rgb(55,53,53)"
       id="path36" />
    <path
       d=" M 19.974 95.789 C 19.123 96.073 18.555 96.924 18.271 98.343 C 18.082 99.478 17.893 100.613 17.703 101.748 C 17.703 101.937 17.703 102.126 17.703 102.315 C 17.798 102.41 17.892 102.504 17.987 102.6 C 18.082 102.6 18.177 102.6 18.271 102.6 C 18.857 102.368 19.285 101.665 19.69 100.897 C 20.331 99.478 20.918 98.057 21.109 96.64 C 21.109 96.451 21.109 96.262 21.109 96.073 C 20.731 95.978 20.353 95.884 19.974 95.789 Z "
       fill="rgb(55,53,53)"
       id="path38" />
    <path
       d=" M 21.392 89.262 C 21.392 88.411 21.677 88.127 22.244 88.127 C 22.811 88.127 23.095 88.411 23.095 88.978 C 23.379 90.681 23.663 92.384 23.663 93.802 C 23.568 94.748 23.474 95.694 23.379 96.64 C 23.474 97.207 23.568 97.775 23.663 98.343 C 23.947 99.478 24.23 100.613 24.514 101.748 C 24.419 101.748 24.325 101.748 24.23 101.748 C 23.852 100.802 23.474 99.856 23.095 98.91 C 22.906 99.383 22.717 99.856 22.528 100.329 C 21.94 101.481 21.115 102.477 20.257 103.451 C 19.123 104.869 17.987 104.869 16.852 104.018 C 16.569 103.734 16.284 103.451 16.001 102.6 C 15.717 101.18 16.284 99.478 17.136 97.775 C 17.987 95.505 19.123 94.654 20.541 95.221 C 20.731 95.316 20.92 95.41 21.109 95.505 C 21.203 94.937 21.298 94.369 21.392 93.802 C 21.392 92.288 21.392 90.775 21.392 89.262 Z "
       fill="rgb(55,53,53)"
       id="path40" />
    <path
       d=" M 53.742 63.439 C 57.809 62.305 61.877 61.17 65.944 60.034 C 66.038 60.223 66.133 60.412 66.227 60.601 C 61.688 64.858 58.282 67.412 56.012 68.547 C 53.742 69.682 51.755 70.533 49.769 71.101 C 50.621 76.776 51.472 82.452 52.323 88.127 C 52.608 92.194 52.891 96.262 53.175 100.329 C 53.175 104.869 52.89 108.842 52.323 112.247 C 51.566 114.328 50.81 116.409 50.053 118.49 C 49.864 118.395 49.675 118.301 49.485 118.206 C 48.539 113.855 47.594 109.504 46.648 105.153 C 45.797 97.018 44.945 88.883 44.094 80.749 C 44.094 77.06 44.377 73.939 44.662 71.952 C 44.284 72.047 43.905 72.141 43.526 72.236 C 36.432 71.858 29.338 71.48 22.244 71.101 C 28.865 69.209 35.486 67.318 42.108 65.426 L 53.742 63.439 Z "
       fill="rgb(55,53,53)"
       id="path42" />
    <defs
       id="defs55">
      <filter
         id="KSWRyNcHq7HPrZwZM2PGDHrpjVb5CiiX"
         x="-0.14154556"
         y="-0.41532637"
         width="1.2830911"
         height="1.8306527"
         filterUnits="objectBoundingBox"
         color-interpolation-filters="sRGB">
        <feGaussianBlur
           in="SourceGraphic"
           stdDeviation="8.587218125678056"
           id="feGaussianBlur44" />
        <feOffset
           dx="0"
           dy="0"
           result="pf_100_offsetBlur"
           id="feOffset46" />
        <feFlood
           flood-color="#FF00FF"
           flood-opacity="1"
           id="feFlood48" />
        <feComposite
           in2="pf_100_offsetBlur"
           operator="in"
           result="pf_100_dropShadow"
           id="feComposite50" />
        <feBlend
           in="SourceGraphic"
           in2="pf_100_dropShadow"
           mode="normal"
           id="feBlend52" />
      </filter>
    </defs>
    <g
       filter="url(#KSWRyNcHq7HPrZwZM2PGDHrpjVb5CiiX)"
       id="g61">
      <g
         transform="matrix(0.983,0.182,-0.182,0.983,20.291,89.262)"
         id="g59">
        <text
           transform="matrix(1,0,0,1,7.764,54.443)"
           style="font-family:'Segoe Script';font-weight:700;font-size:50px;font-style:normal;fill:#373535;stroke:none;"
           id="text57">orava</text>
      </g>
    </g>
    <path
       style="fill:#ffffff;stroke-width:0.231931"
       d="m 51.256815,110.74745 c -0.446467,-0.24429 -1.294148,-0.51251 -1.883734,-0.59605 -0.589586,-0.0835 -1.19767,-0.22957 -1.351299,-0.32451 -0.587816,-0.36329 -1.21661,-4.47689 -2.465077,-16.126648 -1.229452,-11.472328 -1.285838,-12.264 -1.156333,-16.235191 0.07488,-2.29612 0.196135,-4.495188 0.269456,-4.886818 l 0.133312,-0.712054 -1.353805,0.09691 c -1.137659,0.08144 -20.037667,-0.82611 -20.191531,-0.969567 -0.02821,-0.0263 4.250922,-1.27347 9.509183,-2.771484 8.283674,-2.359917 10.35032,-2.859775 15.474722,-3.742858 4.360002,-0.751354 7.437224,-1.447116 11.70951,-2.647527 3.187395,-0.895583 5.882541,-1.541054 5.989213,-1.434381 0.212748,0.212746 -3.489038,3.534174 -6.297146,5.650115 -1.956493,1.47424 -5.810888,3.532266 -8.154539,4.354058 -0.829155,0.29074 -1.578917,0.590007 -1.666137,0.665038 -0.08722,0.07503 0.408849,3.893707 1.102377,8.485947 1.696535,11.233701 2.357421,19.887208 1.975008,25.86034 -0.275421,4.30198 -0.453945,5.8044 -0.687818,5.78856 -0.07898,-0.005 -0.508894,-0.20959 -0.955362,-0.45388 z"
       id="path367" />
    <path
       style="fill:#ffffff;stroke-width:0.231931"
       d="m 49.987405,113.37661 c -0.761957,-0.18386 -1.457187,-0.45049 -1.544956,-0.5925 -0.08777,-0.14202 -0.229422,-0.72395 -0.314784,-1.29318 -0.08536,-0.56924 -0.204877,-1.16442 -0.26559,-1.32264 -0.08591,-0.22389 0.162441,-0.2181 1.120332,0.0261 1.036518,0.26428 3.181704,0.98021 3.375294,1.12646 0.127863,0.0966 -0.667373,2.43948 -0.819957,2.41572 -0.09073,-0.0141 -0.788382,-0.17613 -1.550339,-0.36 z"
       id="path369" />
    <path
       style="fill:#ffffff;stroke-width:0.231931"
       d="m 49.59969,115.91784 c -0.529429,-0.0814 -0.635035,-0.23831 -0.771175,-1.14616 -0.08676,-0.57854 -0.110134,-1.0995 -0.05195,-1.15769 0.05819,-0.0582 0.666139,0.0383 1.351004,0.21448 0.983011,0.25283 1.229438,0.40786 1.170308,0.73628 -0.155032,0.86106 -0.503558,1.51567 -0.7891,1.48211 -0.16261,-0.0191 -0.5717,-0.0772 -0.909089,-0.12902 z"
       id="path371" />
    <path
       style="fill:#ffffff;stroke-width:0.231931"
       d="m 16.925021,103.81897 c -0.867672,-0.86767 -1.046193,-1.65899 -0.711584,-3.15418 0.344839,-1.540903 1.66318,-4.311806 2.360614,-4.961566 0.57278,-0.533625 1.373102,-0.635307 2.069006,-0.262871 0.306614,0.164096 0.484908,0.15106 0.605634,-0.04428 0.0941,-0.15226 0.230897,-1.796355 0.303989,-3.653545 l 0.132896,-3.376708 h 0.578023 c 0.527525,0 0.602951,0.131703 0.86337,1.507553 0.294252,1.554601 0.423902,5.870944 0.187818,6.252935 -0.07325,0.118529 0.01615,0.925766 0.198677,1.793861 0.662024,3.148561 0.654572,3.054381 0.156999,1.984233 -0.252072,-0.54214 -0.509893,-0.985708 -0.572936,-0.985708 -0.06304,0 -0.323737,0.472737 -0.579322,1.050528 -0.542792,1.227078 -2.386226,3.644888 -3.171104,4.159158 -0.833136,0.54589 -1.674227,0.43844 -2.42208,-0.30941 z"
       id="path373" />
    <path
       style="fill:#ffffff;stroke-width:0.231931"
       d="m 29.117044,101.06883 c -1.622608,-0.41217 -2.306481,-1.627918 -2.31842,-4.12155 -0.0077,-1.598259 0.07626,-2.000467 0.605347,-2.901634 1.020613,-1.738353 3.319189,-2.657103 4.200634,-1.679009 1.394042,1.546896 -0.153123,4.922957 -2.314743,5.050985 -0.82005,0.04857 -0.882869,0.104683 -0.947512,0.846383 -0.04885,0.560497 0.06636,0.917079 0.391337,1.211177 0.402224,0.364007 0.572597,0.381263 1.344856,0.136212 0.486356,-0.15433 1.343724,-0.531399 1.905262,-0.837931 0.561538,-0.306533 1.058555,-0.519755 1.104483,-0.473827 0.199272,0.199272 -1.942623,2.335214 -2.629529,2.622224 -0.41616,0.17388 -0.7861,0.30404 -0.822087,0.28924 -0.03599,-0.0148 -0.26982,-0.0788 -0.519628,-0.14227 z"
       id="path375" />
    <path
       style="fill:#ffffff;stroke-width:0.231931"
       d="m 78.840241,116.08715 c -0.650859,-0.34408 -1.403004,-0.4493 -3.513259,-0.49147 l -2.685102,-0.0537 -1.937126,-1.15955 c -2.630697,-1.57471 -6.199719,-5.17078 -7.599841,-7.65744 -6.598385,-11.718913 -1.942633,-27.322146 9.837478,-32.969205 1.14806,-0.550349 2.661412,-1.136507 3.363004,-1.302574 1.908075,-0.451643 4.92474,-0.394792 7.073904,0.133312 l 1.85545,0.455932 -3.015106,0.724775 c -4.968235,1.19427 -7.643733,2.524144 -10.216935,5.078394 -2.654122,2.634574 -4.304325,5.454316 -5.239511,8.952883 -0.420235,1.572116 -0.52398,2.577044 -0.525464,5.089935 -0.0022,3.698235 0.320376,5.14036 1.843615,8.242548 2.009216,4.09191 5.258453,6.75176 10.085347,8.25593 2.128764,0.66338 6.072782,0.71887 8.807539,0.12393 5.515252,-1.19983 10.300206,-5.75815 11.727494,-11.172023 0.564948,-2.142913 0.680489,-5.929508 0.244155,-8.001629 -1.023372,-4.859925 -4.978677,-9.672099 -8.882698,-10.807029 -1.595033,-0.463689 -4.542362,-0.457772 -6.799852,0.01365 -2.57345,0.537404 -4.505082,1.567077 -6.187502,3.298304 -0.7881,0.810963 -1.490791,1.380826 -1.561534,1.266361 -0.222182,-0.359497 0.518016,-2.443023 1.272671,-3.582343 2.092469,-3.159052 6.946871,-5.271265 12.147357,-5.285473 1.835766,-0.005 2.526142,0.105646 4.149172,0.665081 5.39481,1.859511 9.849253,7.071146 11.699773,13.688564 0.57475,2.055276 0.62933,2.602425 0.62941,6.309236 8e-5,3.609189 -0.0602,4.251481 -0.5439,5.798281 -1.59115,5.08792 -4.44331,9.17321 -8.501329,12.17688 -2.508935,1.85706 -2.419017,1.8297 -5.798825,1.76446 -2.616584,-0.0505 -3.163909,0.005 -4.136009,0.42202 -1.5696,0.67281 -6.335161,0.68657 -7.592376,0.0219 z"
       id="path377" />
    <path
       style="fill:#ffffff;stroke-width:0.231931"
       d="m 83.203153,96.26788 c -1.251897,-0.446725 -1.563339,-0.781373 -1.563339,-1.67983 0,-1.700501 1.186322,-2.7687 2.634148,-2.371865 1.543844,0.423152 1.927804,1.555343 1.086633,3.204176 -0.360365,0.706372 -0.939095,1.249052 -1.246488,1.168841 -0.02146,-0.0056 -0.431387,-0.150194 -0.910954,-0.321322 z"
       id="path379" />
    <path
       style="fill:#ffffff;stroke-width:0.231931"
       d="m 107.61612,82.122809 c -1.41245,-0.395195 -2.31625,-0.893399 -3.04757,-1.679927 -1.31949,-1.419091 -2.52777,-4.643295 -3.13368,-8.361951 -0.3524,-2.16281 -0.36654,-2.853263 -0.11959,-5.840171 0.15404,-1.863059 0.48533,-4.691994 0.7362,-6.286521 0.25087,-1.594528 0.46434,-3.003511 0.47437,-3.131073 0.01,-0.127562 0.79361,2.675229 1.7413,6.228426 1.06038,3.97574 2.13322,7.432089 2.78955,8.987 1.03378,2.449162 1.35752,2.966179 1.66489,2.658815 0.11608,-0.11608 2.08012,-15.15982 2.12919,-16.308705 0.0603,-1.411152 1.43764,2.538503 2.81065,8.059613 0.85971,3.457047 1.15939,7.803389 0.6851,9.93639 -0.37931,1.705879 -1.1405,3.18661 -2.19454,4.269035 -1.47681,1.516564 -2.81596,1.950287 -4.53587,1.469069 z"
       id="path381" />
    <path
       style="fill:#ffffff;stroke-width:0.231931"
       d="m 119.10448,78.622038 c -0.0893,-13.77525 -0.16475,-25.655673 -0.16771,-26.400938 -0.007,-1.74552 1.24063,-4.415844 2.54223,-5.441489 1.83394,-1.445106 5.88939,-3.115466 8.86639,-3.651881 1.26005,-0.227044 3.04992,-0.280486 6.49407,-0.193897 7.19359,0.180853 10.13351,0.918517 13.14368,3.297916 2.24461,1.774271 2.80741,3.397763 1.8752,5.409426 -0.85625,1.847742 -2.19829,3.201388 -5.70748,5.756844 -3.84722,2.801616 -5.58588,4.325361 -5.22342,4.577749 0.14361,0.1 2.93549,2.372497 6.20416,5.049993 3.47261,2.844547 5.94305,5.029894 5.94305,5.257217 0,0.301504 -1.42207,-0.274201 -6.32013,-2.558608 -8.28194,-3.862616 -8.58147,-4.024903 -10.03104,-5.434849 -1.2803,-1.245291 -1.71635,-2.312072 -1.42294,-3.481131 0.0746,-0.297267 2.12787,-2.608376 4.56279,-5.135797 2.68186,-2.783733 4.34336,-4.679092 4.21462,-4.807833 -0.11689,-0.116886 -1.65328,-0.30213 -3.4142,-0.411653 -3.09729,-0.19264 -3.32875,-0.174034 -7.09922,0.570673 -4.19318,0.828197 -6.05178,1.357226 -6.44876,1.835567 -0.13762,0.165818 -0.40786,2.638864 -0.60054,5.495657 -0.77716,11.522635 -1.89144,21.277728 -3.6002,31.518371 -1.23963,7.429112 -1.93302,10.417015 -2.82512,12.173725 l -0.82311,1.62085 z"
       id="path383" />
    <path
       style="fill:#ffffff;stroke-width:0.231931"
       d="m 157.82924,50.917444 c -1.31387,-0.549507 -2.43528,-2.434039 -2.43528,-4.092497 0,-2.233117 4.1621,-3.830463 5.98472,-2.296835 1.32998,1.119107 1.81821,3.115593 1.10104,4.502445 -0.18483,0.357416 -0.71031,0.978448 -1.16773,1.38007 -0.69007,0.605887 -1.01789,0.727719 -1.92528,0.715521 -0.60148,-0.0081 -1.30234,-0.102002 -1.55747,-0.208704 z"
       id="path385" />
    <path
       style="fill:#ffffff;stroke-width:0.231931"
       d="m 89.478006,49.506932 c -1.76069,-0.929822 -3.261592,-3.678936 -3.698596,-6.774503 -0.42462,-3.00784 0.772017,-7.516406 2.687554,-10.125889 1.550821,-2.112641 4.423482,-3.731094 6.622477,-3.731094 1.372891,0 2.554894,1.129191 2.720564,2.599009 0.343661,3.048947 -2.452245,7.670992 -5.380283,8.894405 -1.078205,0.450503 -1.214,0.430977 -1.861462,-0.267645 l -0.558588,-0.602726 -0.181225,0.660709 c -0.09967,0.36339 -0.180508,1.495662 -0.17963,2.51616 0.0013,1.561374 0.100267,2.043849 0.624163,3.044146 0.342412,0.653783 0.792499,1.253906 1.000193,1.333605 0.639209,0.245288 1.857935,0.161474 2.876238,-0.197804 1.175745,-0.414827 4.480024,-2.539435 5.7899,-3.72283 0.522939,-0.472445 0.950799,-0.781377 0.950799,-0.686515 0,0.09486 -0.33519,0.853338 -0.74486,1.685504 -0.872833,1.772975 -2.575526,3.721802 -3.958488,4.53071 -2.24028,1.310362 -5.136525,1.675053 -6.708756,0.844758 z"
       id="path387" />
    <path
       style="fill:#ffffff;stroke-width:0.231931"
       d="m 76.604692,55.092323 c -0.620562,-0.264812 -1.81408,-1.842701 -2.437663,-3.22271 -0.251193,-0.555898 -0.653082,-2.234424 -0.893087,-3.730061 -0.397377,-2.476326 -0.416884,-3.329051 -0.218292,-9.542151 0.219448,-6.865553 0.574933,-13.353338 0.837694,-15.288306 l 0.141728,-1.043691 1.003421,1.993027 c 1.929987,3.833402 2.413909,7.154562 2.649715,18.184995 0.170974,7.997787 0.31772,9.393218 0.987808,9.393218 0.162096,0 1.7858,-0.535841 3.608232,-1.190757 1.822431,-0.654913 3.388388,-1.114849 3.479903,-1.022079 0.273921,0.27768 -4.144071,4.246602 -5.461321,4.906203 -1.333772,0.667871 -2.894607,0.905202 -3.698138,0.562312 z"
       id="path389" />
    <path
       style="fill:#ffffff;stroke-width:0.231931"
       d="m 52.80062,151.76829 c -1.075962,-0.62544 -1.318356,-2.58307 -0.718146,-5.7999 0.339673,-1.82049 2.426737,-9.29434 3.221241,-11.53538 0.197886,-0.55818 0.359795,-1.09881 0.359795,-1.2014 0,-0.10258 -0.652307,0.0795 -1.449571,0.40456 -0.962858,0.39262 -2.072563,0.63032 -3.305021,0.70793 -2.530031,0.15932 -6.397322,-0.28583 -7.537806,-0.86766 -0.500063,-0.25512 -0.939457,-0.4629 -0.976429,-0.46174 -0.03697,0.001 -0.08811,0.62212 -0.113633,1.37992 -0.07552,2.24211 -1.21316,4.64988 -3.069462,6.49644 -1.813126,1.8036 -3.572132,2.78449 -6.498827,3.62401 -1.930194,0.55367 -2.433531,0.60773 -4.670958,0.50168 -3.243795,-0.15375 -4.255572,-0.66928 -5.237344,-2.66861 -0.583574,-1.18842 -0.653598,-1.57425 -0.641979,-3.53726 0.0153,-2.58485 0.49512,-4.19224 2.01964,-6.76578 1.087938,-1.83654 4.958672,-5.94231 6.714267,-7.12196 3.649369,-2.45216 6.657039,-2.89911 8.08496,-1.20144 0.346412,0.41185 0.81998,0.70944 1.12896,0.70944 0.603181,0 1.681411,1.03414 3.299823,3.16489 1.078801,1.42032 1.08833,1.42629 2.66721,1.67213 3.216017,0.50074 4.056842,0.53011 7.530414,0.26303 3.19323,-0.24551 3.614074,-0.32856 4.211151,-0.83096 1.532832,-1.2898 4.10675,-0.29533 4.10675,1.58669 0,1.01673 -0.749574,3.18088 -2.53863,7.32945 -0.78939,1.83048 -1.394343,3.36906 -1.344343,3.41906 0.05,0.05 0.747106,-0.74217 1.549122,-1.76039 4.02562,-5.11078 8.023216,-7.53458 12.422862,-7.53215 2.160317,0.001 3.438022,0.47815 4.956928,1.85039 1.049958,0.94857 1.186252,1.55089 0.605204,2.67451 -0.440442,0.85172 -1.231611,1.06196 -2.711175,0.72043 -2.628927,-0.60683 -5.594092,-0.1735 -8.15723,1.19208 -3.2076,1.70894 -7.283282,6.52915 -9.381358,11.0951 -0.505212,1.09947 -1.161589,2.16925 -1.458616,2.3773 -0.612283,0.42885 -2.412211,0.49668 -3.067799,0.11559 z M 32.420952,140.42248 c 0.871548,-0.43552 1.866337,-1.20017 2.586504,-1.98815 1.376712,-1.50634 3.149807,-4.94675 3.549541,-6.88732 0.251008,-1.21856 0.233613,-1.43071 -0.179113,-2.18456 -0.584604,-1.06779 -1.529016,-1.76158 -2.397908,-1.76158 -1.083175,0 -3.224907,1.22612 -4.374275,2.50423 -2.751736,3.05996 -4.937889,7.8673 -4.433478,9.7492 0.267647,0.99856 0.790685,1.27589 2.406301,1.27589 1.125935,0 1.724334,-0.14899 2.842428,-0.70771 z"
       id="path391" />
    <path
       style="fill:#ffffff;stroke-width:0.231931"
       d="m 153.35802,167.93917 c -2.43845,-0.79558 -3.93839,-3.08844 -4.16287,-6.36347 l -0.12794,-1.86666 -1.3013,1.11259 c -3.88373,3.32053 -8.10655,5.05026 -10.76964,4.41139 -2.2752,-0.54581 -3.86867,-3.08352 -3.53162,-5.62434 0.2026,-1.52726 1.24715,-4.01244 2.55135,-6.07017 l 1.029,-1.62351 -2.13217,-0.14575 c -2.23416,-0.15272 -3.55166,-0.53042 -5.18097,-1.48526 -0.53715,-0.31479 -1.0262,-0.57234 -1.08679,-0.57234 -0.0606,0 -0.87108,1.12197 -1.8011,2.49326 -4.53535,6.68725 -8.19335,11.36432 -9.43262,12.06043 -1.67946,0.94336 -3.27654,0.51569 -4.11274,-1.10134 -0.26753,-0.51735 -0.28424,-0.81001 -0.0797,-1.39661 0.3422,-0.98164 -0.037,-3.71445 -1.10666,-7.97602 -0.44538,-1.77436 -0.99004,-4.29666 -1.21035,-5.60511 l -0.40058,-2.379 -1.26862,1.05603 c -1.86203,1.54997 -5.87388,4.19443 -7.561,4.98393 -3.507559,1.64138 -5.954286,1.75344 -7.472521,0.34224 -0.878944,-0.81698 -1.691808,-2.66738 -1.855259,-4.22331 l -0.151182,-1.43913 -2.548991,2.19489 c -3.953274,3.4041 -7.997881,5.562 -10.001661,5.33615 -2.20583,-0.24863 -4.205266,-2.15689 -4.439759,-4.23731 -0.366861,-3.25479 3.011284,-9.05198 8.120545,-13.93556 3.790817,-3.62338 6.240731,-4.8028 10.029523,-4.82836 2.819587,-0.019 3.646736,0.26994 4.165803,1.45532 0.204316,0.46659 0.629114,1.33339 0.943998,1.92622 0.733949,1.3818 0.720316,1.88866 -0.102906,3.82638 -1.231435,2.89858 -1.791933,5.89054 -1.516491,8.0951 0.191399,1.53191 0.710117,2.19214 1.722277,2.19214 1.727704,0 12.050424,-6.29205 12.898354,-7.86199 0.51353,-0.95079 1.77846,-1.87912 2.56046,-1.87912 1.10044,0 2.35533,0.70109 2.75232,1.53768 0.40558,0.8547 0.36736,1.20463 -0.46447,4.25316 -0.54776,2.00746 -0.42777,5.00026 0.35365,8.82083 0.37832,1.84965 0.69107,3.78048 0.69502,4.29073 l 0.007,0.92772 0.44456,-0.57863 c 0.64087,-0.83416 3.29419,-5.19744 5.28964,-8.69862 2.67115,-4.68675 3.4164,-5.44784 5.33606,-5.44952 0.89021,-7.9e-4 1.14257,0.13962 2.46909,1.37368 0.81264,0.756 1.90402,1.59212 2.4253,1.85806 1.21992,0.62235 3.82642,0.84301 5.98478,0.50664 1.47273,-0.22951 1.86244,-0.40757 3.36301,-1.5365 3.606,-2.71294 6.7223,-3.71785 8.37047,-2.69923 0.61825,0.3821 0.93783,0.44309 1.49081,0.28449 1.37708,-0.39494 2.81094,0.86154 3.36787,2.95122 0.51622,1.93695 0.47607,2.43615 -0.35857,4.45859 -1.44978,3.51298 -1.64665,4.44964 -1.6558,7.87772 -0.007,2.68427 0.055,3.23582 0.43586,3.86509 0.54856,0.90643 1.24111,1.2374 2.58926,1.2374 1.29179,0 2.4372,-0.46649 3.71369,-1.51247 1.02724,-0.84175 1.66481,-0.99952 2.13581,-0.52853 0.74019,0.7402 0.008,2.37452 -1.68693,3.76302 -2.35561,1.93024 -5.593,2.82117 -7.72443,2.12576 z m -11.81424,-7.47052 c 3.14965,-1.58176 6.77012,-5.14675 8.43333,-8.3041 0.65484,-1.24313 0.87114,-1.95812 0.9575,-3.16513 0.14236,-1.98969 -0.17875,-2.25273 -2.06595,-1.69229 -1.02511,0.30443 -1.59748,0.71639 -3.29583,2.37217 -4.8015,4.68113 -7.49482,9.04678 -6.68194,10.83086 0.34039,0.74708 1.10649,0.7351 2.65289,-0.0415 z M 82.204899,149.61679 c 3.399782,-1.42052 9.288607,-7.16924 10.941849,-10.68152 0.857597,-1.82195 1.425471,-3.73642 1.18086,-3.98103 -0.333307,-0.33331 -2.737174,0.43864 -4.091226,1.31381 -2.678513,1.73121 -6.91464,6.18341 -8.69258,9.13597 -0.995382,1.653 -1.507924,3.65634 -1.070345,4.18359 0.366017,0.44102 0.731041,0.44717 1.731442,0.0292 z"
       id="path393" />
    <path
       style="fill:#ffffff;stroke-width:0.231931"
       d="m 79.90033,118.05923 c -1.981692,-0.36597 -4.244329,-1.11991 -5.664664,-1.88753 l -1.061344,-0.57361 2.37846,0.1365 c 1.308153,0.0751 2.821505,0.30101 3.363004,0.50209 1.352849,0.50238 5.614792,0.50059 7.47862,-0.003 1.372843,-0.37103 7.129562,-0.65933 6.935824,-0.34736 -0.05208,0.0839 -0.90151,0.48836 -1.887624,0.89888 -3.556089,1.48041 -7.855518,1.95502 -11.542276,1.27416 z"
       id="path395" />
    <path
       style="fill:#ffffff;stroke-width:0.231931"
       d="m 89.003633,115.69608 c 0.159453,-0.0643 0.420375,-0.0643 0.579828,0 0.159453,0.0643 0.02899,0.11698 -0.289914,0.11698 -0.318906,0 -0.449367,-0.0526 -0.289914,-0.11698 z"
       id="path397" />
    <path
       style="fill:#ffffff;stroke-width:0.231931"
       d="m 80.364192,116.323 c -0.637811,-0.10545 -1.441451,-0.3027 -1.785866,-0.43834 -0.344416,-0.13563 -1.857768,-0.31815 -3.363004,-0.40558 -2.70803,-0.15729 -2.752638,-0.16916 -4.244347,-1.12951 -5.079776,-3.27032 -8.515616,-7.82382 -9.980802,-13.22753 -0.641796,-2.366986 -0.872042,-7.250225 -0.462407,-9.807112 0.812902,-5.074031 3.12038,-9.682137 6.59953,-13.179468 2.768151,-2.782616 6.840424,-5.088502 10.052863,-5.692336 1.503555,-0.28262 4.690287,-0.114857 6.416337,0.337782 l 1.144922,0.300245 -1.376854,0.293644 c -2.564263,0.546884 -6.00803,1.694206 -7.638998,2.544999 -1.729733,0.902314 -4.669104,3.517922 -6.017257,5.354474 -1.077106,1.467313 -2.300182,3.976516 -2.947945,6.047863 -0.480734,1.537242 -0.542884,2.184419 -0.534548,5.566351 0.0088,3.564524 0.05339,3.954062 0.650702,5.682317 1.32099,3.822151 3.528761,6.814571 6.394024,8.666481 1.977745,1.27828 4.508826,2.28642 6.538048,2.60413 2.049659,0.32092 5.781499,0.14565 7.745472,-0.36376 5.550721,-1.43974 10.232633,-6.26881 11.391828,-11.749901 0.556563,-2.63163 0.345517,-7.247109 -0.425337,-9.301985 -0.897655,-2.392886 -1.982811,-4.061708 -3.922385,-6.032101 -2.788211,-2.832514 -5.25078,-3.638009 -9.711316,-3.176527 -3.370523,0.34871 -5.227481,1.167214 -7.745581,3.414072 -0.771395,0.688303 -1.440763,1.136779 -1.487484,0.996614 -0.197191,-0.591573 1.410175,-3.412114 2.560992,-4.493926 1.379744,-1.297012 4.2086,-2.721582 6.556108,-3.301559 1.950723,-0.481947 5.822384,-0.549376 7.305835,-0.127238 4.868584,1.385426 9.455908,5.838306 11.677298,11.335059 1.31581,3.255941 1.60233,5.091612 1.48921,9.541243 -0.0953,3.749079 -0.15557,4.216599 -0.74979,5.816259 -1.8462,4.97003 -4.40562,8.47915 -8.308512,11.39149 -0.993322,0.74122 -2.193566,1.45529 -2.667209,1.58684 -0.473641,0.13154 -2.074382,0.23975 -3.5572,0.24046 -1.755337,9.3e-4 -3.027583,0.11828 -3.646255,0.33656 -1.194838,0.42156 -4.42367,0.62234 -5.950072,0.36999 z"
       id="path399" />
    <path
       style="fill:#ffffff;stroke-width:0.231931"
       d="m 80.364192,116.323 c -0.637811,-0.10545 -1.441451,-0.3027 -1.785866,-0.43834 -0.344416,-0.13563 -1.857768,-0.31649 -3.363004,-0.4019 l -2.736794,-0.15529 -1.85545,-1.22576 c -4.932778,-3.25872 -8.172956,-7.6207 -9.67885,-13.02982 -0.43313,-1.555781 -0.502128,-2.39833 -0.499217,-6.096026 0.0031,-3.997011 0.04654,-4.433619 0.633926,-6.378111 2.041117,-6.756963 6.113907,-11.791065 11.863454,-14.663615 2.569155,-1.283584 3.726902,-1.562759 6.494076,-1.565961 1.403184,-0.0016 3.177459,0.141597 3.942832,0.31827 l 1.391588,0.321223 -2.923331,0.758339 c -5.45315,1.414599 -7.704365,2.660247 -10.789885,5.970286 -1.225706,1.314894 -1.960541,2.389223 -2.843775,4.157599 -1.729017,3.461769 -1.992638,4.672118 -1.984328,9.110554 0.0065,3.44516 0.053,3.843769 0.650058,5.566351 1.851972,5.343161 5.45573,8.942571 10.817356,10.804311 1.284994,0.4462 2.004033,0.52561 4.870558,0.53789 2.517296,0.0108 3.73555,-0.0875 4.844457,-0.39082 5.740585,-1.57031 10.370743,-6.31357 11.541537,-11.823469 0.546207,-2.570526 0.32655,-7.212072 -0.438837,-9.272947 -1.49185,-4.016936 -4.687849,-7.58164 -7.894689,-8.805453 -1.690932,-0.645303 -5.593345,-0.628279 -8.148449,0.03555 -2.186536,0.568072 -3.36975,1.225995 -5.296219,2.944951 -0.790133,0.705022 -1.474832,1.167178 -1.521553,1.027013 -0.197191,-0.591573 1.410175,-3.412114 2.560992,-4.493926 1.401152,-1.317137 4.273947,-2.768932 6.556108,-3.313193 2.462414,-0.58725 6.111468,-0.534084 8.001629,0.116581 5.876541,2.022929 10.597164,7.813247 12.175274,14.934184 0.3249,1.466034 0.38016,2.567535 0.29089,5.798283 -0.0965,3.492396 -0.18215,4.190336 -0.68873,5.611946 -1.1946,3.3524 -3.02848,6.41178 -5.269432,8.79079 -1.652416,1.75421 -4.653658,3.99546 -5.762799,4.3035 -0.473641,0.13154 -2.074382,0.23975 -3.5572,0.24046 -1.755337,9.3e-4 -3.027583,0.11828 -3.646255,0.33656 -1.194838,0.42156 -4.42367,0.62234 -5.950072,0.36999 z"
       id="path401" />
    <path
       style="fill:#ffffff;stroke-width:0.231931"
       d="m 80.364192,116.323 c -0.637811,-0.10545 -1.431115,-0.29877 -1.762898,-0.4296 -0.331783,-0.13084 -1.845134,-0.31106 -3.363004,-0.40049 l -2.759762,-0.1626 -1.85545,-1.22717 c -4.936173,-3.26475 -8.173181,-7.62293 -9.67885,-13.03125 -0.43313,-1.555781 -0.502128,-2.39833 -0.499217,-6.096026 0.0031,-3.997011 0.04654,-4.433619 0.633926,-6.378111 1.123229,-3.718364 2.958134,-7.095833 5.283905,-9.725966 2.174566,-2.459142 6.013492,-4.979292 9.246759,-6.070244 1.574307,-0.531195 5.70219,-0.592343 7.769698,-0.115096 l 1.391588,0.321223 -2.937332,0.761951 c -5.248564,1.361491 -7.797369,2.762177 -10.656606,5.856297 -3.699702,4.003626 -5.334801,8.797555 -4.998196,14.654152 0.1574,2.738607 0.549597,4.274885 1.67079,6.54467 1.089946,2.20653 1.953511,3.38796 3.571063,4.88553 5.402897,5.00213 14.423689,5.77229 20.588666,1.75778 3.404193,-2.21675 6.13481,-6.13032 6.936096,-9.940942 0.548121,-2.60667 0.344439,-6.768166 -0.440841,-9.00696 -1.076285,-3.068428 -3.034631,-5.742864 -5.574084,-7.612303 -1.799397,-1.324642 -3.194244,-1.717338 -6.110332,-1.720268 -4.152335,-0.0042 -6.824047,0.927291 -9.542117,3.326755 -0.847939,0.748545 -1.579383,1.247963 -1.625432,1.109818 -0.190254,-0.570765 1.411833,-3.408851 2.503737,-4.43535 3.770798,-3.544928 10.753379,-4.848107 15.544815,-2.901172 5.270838,2.141734 9.597006,7.671584 11.172876,14.281541 0.40738,1.708765 0.45574,2.512168 0.36294,6.030214 -0.0943,3.575917 -0.17598,4.251947 -0.68629,5.682317 -1.21033,3.39249 -2.91892,6.2603 -5.168082,8.6745 -1.716734,1.8427 -4.711283,4.09941 -5.864839,4.41979 -0.473641,0.13154 -2.074382,0.23975 -3.5572,0.24046 -1.755337,9.3e-4 -3.027583,0.11828 -3.646255,0.33656 -1.194838,0.42156 -4.42367,0.62234 -5.950072,0.36999 z"
       id="path403" />
    <path
       style="fill:#ffffff;stroke-width:0.231931"
       d="m 78.508742,117.60274 c -1.14806,-0.29889 -2.661412,-0.80705 -3.363004,-1.12925 l -1.275622,-0.5858 1.343383,-0.019 c 0.73886,-0.0105 2.130344,0.14355 3.092186,0.34223 0.961843,0.19867 1.922857,0.31514 2.135587,0.25883 0.256444,-0.0679 0.20342,-0.11146 -0.15735,-0.12929 -0.299272,-0.0148 -1.08204,-0.1747 -1.739484,-0.35533 -0.657444,-0.18064 -2.291228,-0.39549 -3.630631,-0.47744 -2.387425,-0.14609 -2.469459,-0.1702 -4.174763,-1.2271 -2.100916,-1.30209 -5.860207,-4.96129 -7.132664,-6.94275 -2.563096,-3.99125 -3.663023,-8.931072 -3.248559,-14.589433 0.632282,-8.632073 6.200294,-16.318222 14.208089,-19.613015 1.755226,-0.722184 2.012051,-0.763676 4.754591,-0.768125 1.671687,-0.0027 3.488319,0.13186 4.290729,0.317849 l 1.391588,0.322554 -2.899141,0.754391 c -1.594528,0.414916 -3.606235,1.038583 -4.470462,1.385928 -5.140829,2.066172 -9.267731,6.79942 -10.823559,12.413814 -0.389229,1.404582 -0.477307,2.400507 -0.477307,5.39709 0,3.309146 0.05796,3.847314 0.58264,5.410323 1.843046,5.490344 5.240664,8.966934 10.549022,10.794224 2.965845,1.02093 8.253132,0.95692 11.265145,-0.13638 4.504333,-1.63498 8.345101,-5.55562 9.728453,-9.930756 1.07813,-3.409805 0.987976,-8.14089 -0.211725,-11.111054 -1.371491,-3.395466 -4.098855,-6.565638 -6.787138,-7.889074 -1.346843,-0.663049 -1.773437,-0.752878 -3.982181,-0.838539 -4.356243,-0.168945 -7.445524,0.833157 -10.170484,3.299103 -0.781848,0.707532 -1.483403,1.286422 -1.559011,1.286422 -0.619479,0 0.728609,-2.938907 1.961734,-4.27669 2.714665,-2.945064 8.648361,-4.808385 13.105521,-4.115446 5.986671,0.930727 11.264655,6.135414 13.684675,13.494624 0.58637,1.78313 0.65749,2.359522 0.74463,6.03502 0.11033,4.653548 -0.067,5.93873 -1.20486,8.72957 -1.82654,4.48014 -4.731017,8.04387 -8.900167,10.9203 l -1.228849,0.84782 -3.525743,0.16011 c -1.939159,0.0881 -3.83885,0.27453 -4.221536,0.41438 -0.382687,0.13984 -1.687301,0.35448 -2.899142,0.47697 l -2.203347,0.22271 2.203347,-0.10939 c 1.211841,-0.0602 2.620824,-0.20678 3.131073,-0.32582 0.510249,-0.11904 2.232339,-0.27864 3.826866,-0.35466 2.657831,-0.12672 2.850879,-0.10893 2.319313,0.21373 -0.823331,0.49975 -3.81228,1.46156 -5.434999,1.74891 -2.429172,0.43015 -6.25736,0.28652 -8.596844,-0.32256 z"
       id="path405" />
    <path
       style="fill:#ffffff;stroke-width:0.231931"
       d="m 79.320501,117.83846 c -1.649626,-0.36597 -4.131383,-1.2131 -4.870557,-1.66253 -0.538281,-0.32729 -0.43026,-0.34324 1.507554,-0.22262 1.14806,0.0715 2.400489,0.18398 2.783175,0.25004 0.675744,0.11665 0.679086,0.11283 0.115966,-0.13236 -0.47297,-0.20594 -4.56732,-0.66644 -6.058439,-0.6814 -1.23369,-0.0124 -6.39895,-4.31053 -8.481279,-7.0575 -4.642107,-6.12379 -5.402153,-15.953401 -1.831165,-23.682336 2.333227,-5.049965 6.962865,-9.48822 11.998547,-11.502543 1.845082,-0.738052 2.08022,-0.775064 4.952164,-0.779502 1.844456,-0.0029 3.508191,0.121664 4.285081,0.320699 l 1.269975,0.325359 -2.777528,0.733581 c -4.785837,1.264 -6.474622,2.032561 -9.095635,4.139395 -2.900378,2.331395 -5.58321,6.564602 -6.425673,10.138991 -0.482655,2.047798 -0.486292,7.760688 -0.0061,9.604212 0.490767,1.884182 1.993009,4.860394 3.248322,6.435514 1.905931,2.39148 5.377385,4.57975 8.564594,5.39878 1.837291,0.47214 6.686371,0.46886 8.706678,-0.006 5.371787,-1.2623 10.077819,-5.87325 11.532299,-11.299311 0.46014,-1.716583 0.511033,-6.60956 0.08739,-8.401634 -0.150778,-0.637811 -0.709858,-2.046794 -1.242398,-3.131072 -1.208949,-2.46148 -4.173601,-5.595216 -6.231868,-6.587293 -2.346206,-1.130862 -7.23528,-1.065763 -10.286634,0.136969 -1.253648,0.494142 -3.610494,2.094372 -4.510071,3.062209 -1.156237,1.243971 -1.278911,0.41896 -0.245275,-1.64953 1.635947,-3.27382 5.466143,-5.497388 10.587681,-6.146533 2.997666,-0.379949 5.109611,-0.0246 7.846646,1.320254 4.403019,2.163439 7.883249,6.500402 9.776529,12.183236 0.64036,1.9221 0.65668,2.096158 0.65242,6.957939 -0.004,4.914286 -0.0139,5.011726 -0.66477,6.726006 -1.90416,5.01549 -4.935763,8.98434 -8.966256,11.73825 l -1.642211,1.12207 -3.562705,0.15633 c -1.959488,0.086 -3.679507,0.22851 -3.822263,0.31674 -0.142756,0.0882 -0.750063,0.25186 -1.349571,0.36363 l -1.090012,0.20321 1.275622,-0.12274 c 0.701592,-0.0675 2.006206,-0.21596 2.899141,-0.32989 0.892936,-0.11393 2.354103,-0.20755 3.247038,-0.20804 1.599598,-9.3e-4 1.613706,0.004 0.957443,0.35993 -0.990363,0.5365 -3.07168,1.22359 -4.857456,1.60357 -1.897225,0.40369 -6.468453,0.4069 -8.27638,0.006 z m 0.985708,-1.44659 c -0.159452,-0.0643 -0.420375,-0.0643 -0.579828,0 -0.159453,0.0643 -0.02899,0.11698 0.289914,0.11698 0.318906,0 0.449367,-0.0526 0.289914,-0.11698 z"
       id="path407" />
    <path
       style="fill:#ffffff;stroke-width:0.231931"
       d="m 78.392776,117.62111 c -2.134842,-0.5693 -4.870557,-1.71235 -4.870557,-2.03503 0,-0.11015 -0.268739,-0.20026 -0.597198,-0.20026 -1.035328,0 -3.819373,-2.02728 -6.48221,-4.7202 -2.127504,-2.15154 -2.738826,-2.93848 -3.641274,-4.68732 -4.712885,-9.132991 -2.966168,-20.63358 4.233917,-27.876603 2.669154,-2.685072 6.62185,-5.027181 9.540611,-5.653144 1.45655,-0.312374 6.11,-0.13301 7.499028,0.289045 l 0.927725,0.281888 -1.159656,0.321664 c -0.637811,0.176915 -2.098979,0.577987 -3.247038,0.891271 -1.14806,0.313284 -3.078888,1.055213 -4.290729,1.648731 -1.896399,0.92879 -2.510296,1.38892 -4.406695,3.302927 -2.442769,2.465448 -3.726465,4.488967 -4.794847,7.558224 -0.612888,1.760709 -0.646113,2.068618 -0.650702,6.030213 -0.0054,4.69397 0.117478,5.274341 1.816048,8.574864 1.769369,3.4381 5.049696,6.24388 8.963921,7.66715 2.269741,0.82532 6.787701,1.05494 9.509183,0.48331 5.61963,-1.18038 10.504657,-5.83871 11.93552,-11.38165 0.478097,-1.852066 0.47985,-6.745363 0.0031,-8.575833 -0.966096,-3.709093 -4.293051,-7.98077 -7.318362,-9.396485 -2.823729,-1.321382 -7.660294,-1.143855 -10.964694,0.40246 -0.799172,0.373978 -2.203459,1.325826 -3.120638,2.115218 -1.477293,1.271466 -1.667579,1.374466 -1.667416,0.902555 3.71e-4,-1.085461 1.289701,-3.292348 2.649619,-4.535236 2.659442,-2.430572 6.107107,-3.6164 10.57029,-3.635662 2.67819,-0.01156 3.022875,0.03834 4.522661,0.654707 5.486128,2.254635 9.847397,7.55567 11.485427,13.960305 0.59387,2.32202 0.65071,8.87873 0.0973,11.229791 -0.84465,3.58865 -3.98624,8.68686 -6.893595,11.18702 -3.321553,2.85634 -3.982752,3.18089 -6.591098,3.23525 l -2.040916,0.0425 1.85545,0.13142 1.85545,0.13142 -1.404332,0.63051 c -3.67702,1.6509 -9.341846,2.08669 -13.323305,1.02495 z m 10.417582,-1.68793 c 0.18718,-0.16174 -1.959333,-0.0349 -2.531918,0.14958 -0.347922,0.11212 0.02312,0.13627 0.927725,0.0604 0.829155,-0.0696 1.551041,-0.16404 1.604193,-0.20997 z m -10.587116,-0.004 c -0.157025,-0.0635 -0.470132,-0.0674 -0.695794,-0.009 -0.225662,0.0588 -0.09719,0.11078 0.2855,0.11551 0.382687,0.005 0.567319,-0.0434 0.410294,-0.10692 z m -1.859864,-0.24757 c -0.414578,-0.0515 -1.092977,-0.0515 -1.507554,0 -0.414577,0.0515 -0.07538,0.0936 0.753777,0.0936 0.829154,0 1.168354,-0.0421 0.753777,-0.0936 z"
       id="path409" />
    <path
       style="fill:#ffffff;stroke-width:0.231931"
       d="m 81.291917,118.15671 c -2.353565,-0.24543 -4.378297,-0.82094 -6.538364,-1.85843 -1.044857,-0.50186 -2.018087,-0.91246 -2.162735,-0.91246 -0.71802,0 -3.867062,-2.41649 -6.153601,-4.72211 -2.155592,-2.17358 -2.73082,-2.91508 -3.623673,-4.67111 -2.220943,-4.36806 -3.04702,-8.785386 -2.522975,-13.491228 0.920524,-8.26615 5.537987,-15.10692 12.59532,-18.65996 2.355823,-1.186048 4.006084,-1.595203 6.425358,-1.593063 2.007931,0.0018 4.702468,0.339814 5.278559,0.662212 0.192072,0.107489 -0.935745,0.514345 -2.882779,1.039953 -4.640361,1.25268 -6.990628,2.46185 -9.428425,4.850755 -3.221033,3.156433 -5.20968,6.80428 -5.740251,10.52955 -0.403794,2.835136 -0.134794,7.316374 0.558931,9.311178 1.773705,5.100293 5.631396,8.921523 10.5997,10.499523 2.110664,0.67037 5.999451,0.8388 8.653072,0.37477 5.308137,-0.92821 10.21289,-5.16129 12.010429,-10.365663 0.710239,-2.056338 0.892569,-7.021595 0.343966,-9.366944 -0.972056,-4.155662 -4.547314,-8.554068 -8.084441,-9.945756 -0.949197,-0.373463 -1.761207,-0.479441 -3.76174,-0.490955 -4.287672,-0.02468 -6.735786,0.864442 -9.879899,3.588233 -1.331478,1.153479 -1.368768,1.169182 -1.368768,0.576394 0,-1.839302 2.659277,-5.044037 5.285664,-6.369833 2.51502,-1.269578 4.669518,-1.744113 7.934419,-1.747581 2.613602,-0.0028 3.055867,0.05901 4.490397,0.627301 5.438436,2.154451 9.871069,7.548504 11.528499,14.028979 0.58692,2.294841 0.6438,9.168064 0.0936,11.312765 -0.58107,2.26511 -2.69114,6.28322 -4.43995,8.45478 -1.578943,1.96064 -4.767152,4.74585 -6.223771,5.43706 -0.441539,0.20952 -1.484065,0.37958 -2.46873,0.40271 l -1.704432,0.04 1.507553,0.13392 1.507553,0.13392 -1.159656,0.54263 c -2.774077,1.29806 -7.30922,1.99878 -10.66884,1.64843 z m 7.018626,-2.23445 c -0.221747,-0.058 -0.639223,-0.0602 -0.927725,-0.005 -0.288501,0.0555 -0.107073,0.10297 0.403176,0.10555 0.510248,0.003 0.746297,-0.0428 0.524549,-0.10087 z m -12.179097,-0.22618 c -0.159453,-0.0643 -0.420375,-0.0643 -0.579828,0 -0.159453,0.0643 -0.02899,0.11698 0.289914,0.11698 0.318906,0 0.449367,-0.0526 0.289914,-0.11698 z"
       id="path411" />
    <path
       style="fill:#ffffff;stroke-width:0.231931"
       d="m 81.037705,118.16642 c -2.565095,-0.27382 -5.283599,-1.19792 -9.25497,-3.14605 -1.363663,-0.66893 -3.789603,-2.66805 -5.838661,-4.8114 -3.29907,-3.45089 -5.109443,-7.4878 -5.668175,-12.639324 -0.505538,-4.661076 0.280304,-8.942934 2.455348,-13.378587 2.218602,-4.524482 5.551588,-7.968278 9.861176,-10.189026 3.076669,-1.585419 4.21165,-1.836143 7.641657,-1.688082 1.602308,0.06917 3.330764,0.25508 3.841013,0.413144 l 0.927725,0.287389 -1.507553,0.430141 c -7.634285,2.178245 -9.876997,3.442843 -13.023071,7.343324 -1.537463,1.906135 -3.192692,5.136781 -3.704295,7.229976 -0.410651,1.680151 -0.405688,7.799232 0.0077,9.509183 1.152666,4.767792 4.95878,9.166582 9.605194,11.100892 3.396816,1.41409 8.516956,1.53789 12.128293,0.29325 5.216548,-1.79789 9.559656,-6.78788 10.320774,-11.858005 0.374538,-2.494958 0.138908,-6.731563 -0.469801,-8.446959 -1.431517,-4.034154 -5.028128,-7.971317 -8.096732,-8.863384 -1.698751,-0.49384 -5.681825,-0.479352 -7.579833,0.02757 -2.043612,0.545812 -3.240541,1.191155 -5.264017,2.838176 -1.714367,1.395422 -1.809887,1.441779 -1.809887,0.878365 0,-1.020647 1.279219,-3.191431 2.637744,-4.476145 1.43207,-1.354264 3.795405,-2.586669 6.175645,-3.220406 2.335272,-0.621764 6.885251,-0.568264 8.681689,0.102083 2.27754,0.849872 3.847163,1.91814 6.044401,4.113749 2.494951,2.493097 3.996531,4.892808 5.186521,8.28865 0.83061,2.370314 0.83442,2.39908 0.9182,6.932915 0.0974,5.268881 -0.0684,6.220471 -1.6747,9.611311 -1.91159,4.03541 -4.483402,7.11078 -8.0018,9.56856 -1.581663,1.10487 -1.829929,1.20278 -3.131073,1.23485 -1.399654,0.0345 -1.403195,0.0363 -0.369506,0.18652 l 1.043691,0.15168 -1.043691,0.4737 c -3.19877,1.45184 -7.364808,2.09414 -11.039017,1.70194 z m 7.033372,-2.22493 c -0.07707,-0.0771 -0.277112,-0.0853 -0.444536,-0.0183 -0.185019,0.074 -0.130063,0.12899 0.140126,0.14012 0.244492,0.0101 0.381478,-0.0448 0.30441,-0.12182 z"
       id="path413" />
    <path
       style="fill:#ffffff;stroke-width:0.231931"
       d="m 80.75682,118.16482 c -2.062303,-0.28556 -3.733055,-0.80094 -6.538807,-2.01706 -3.091369,-1.33991 -4.680966,-2.42396 -7.377406,-5.0311 -3.985134,-3.85315 -5.8417,-7.61174 -6.553619,-13.267699 -1.083116,-8.604996 2.989701,-17.786398 9.988193,-22.516508 1.496971,-1.011767 4.087141,-2.277194 5.55085,-2.711869 1.986238,-0.58985 8.21055,-0.380539 8.897194,0.299194 0.101349,0.100328 -1.203264,0.567969 -2.899141,1.039202 -1.743826,0.484556 -4.092479,1.346894 -5.406049,1.9849 -1.904387,0.924969 -2.645787,1.449174 -4.117153,2.911027 -3.565759,3.542704 -5.428837,7.26628 -5.745145,11.482331 -0.213965,2.851932 0.06228,6.883182 0.56913,8.305202 0.898779,2.52164 2.078616,4.33561 4.179721,6.42622 2.308247,2.29671 4.312213,3.48881 7.088188,4.21652 2.072117,0.54321 6.972386,0.52981 9.026775,-0.0247 5.040739,-1.36053 9.437507,-5.5455 10.987024,-10.45777 0.436766,-1.384635 0.510216,-2.135417 0.499174,-5.102488 -0.01116,-2.998319 -0.08569,-3.687252 -0.539451,-4.986523 -1.150634,-3.294621 -4.258145,-7.066549 -6.987369,-8.48134 -1.136795,-0.589298 -1.560167,-0.669944 -3.940832,-0.750667 -4.508717,-0.15288 -6.729655,0.539335 -9.896467,3.084499 -1.696923,1.363816 -1.820789,1.424072 -1.888093,0.918484 -0.213552,-1.604219 2.576567,-4.99756 5.196666,-6.320182 2.756057,-1.391254 4.520273,-1.78418 7.979481,-1.777192 2.880404,0.0058 3.250712,0.05691 4.625483,0.638119 3.173086,1.341492 6.191668,3.893155 8.287953,7.005962 1.23223,1.829752 1.72308,2.821799 2.6394,5.33442 0.74678,2.047696 0.76314,2.175948 0.86095,6.745848 0.11593,5.41674 -0.05,6.38411 -1.67659,9.77234 -1.40795,2.93288 -2.66948,4.7386 -4.763218,6.81797 -2.496675,2.47953 -4.680389,3.90784 -6.028669,3.94321 -0.921446,0.0242 -0.963217,0.046 -0.350374,0.18357 l 0.695794,0.15613 -0.544509,0.30058 c -2.608889,1.44017 -8.372319,2.35662 -11.819084,1.87935 z"
       id="path415" />
    <path
       style="fill:#ffffff;stroke-width:0.231931"
       d="m 80.596124,118.14368 c -2.888356,-0.41653 -7.538464,-2.20256 -10.065984,-3.86617 -1.870626,-1.23125 -5.681355,-4.9969 -6.877472,-6.79612 -1.293257,-1.94533 -2.286034,-4.26912 -2.937393,-6.87555 -0.418332,-1.673964 -0.506288,-2.672892 -0.495723,-5.629976 0.0111,-3.106162 0.09454,-3.902143 0.613723,-5.854454 2.035761,-7.655179 6.806594,-13.234705 13.744204,-16.073953 1.354879,-0.55449 2.024822,-0.674842 4.200839,-0.754664 2.448181,-0.08981 5.750231,0.257487 5.979792,0.628924 0.05766,0.09329 -1.377048,0.610734 -3.188233,1.149869 -1.811187,0.539136 -4.156587,1.396941 -5.212002,1.906233 -4.174664,2.014495 -8.358776,7.257461 -9.434742,11.822349 -0.408803,1.734389 -0.488033,7.569026 -0.129292,9.521335 0.126259,0.687113 0.708889,2.222885 1.294734,3.412827 1.769476,3.59408 5.231094,6.71667 9.015611,8.13264 3.647509,1.36471 9.819809,1.0014 13.369235,-0.78693 2.433667,-1.22617 5.257386,-3.98453 6.766725,-6.6101 2.049735,-3.565614 2.35497,-10.196876 0.638224,-13.865478 -1.513254,-3.233749 -4.312157,-6.327689 -6.729373,-7.438729 -1.055723,-0.485248 -1.715419,-0.602296 -3.826866,-0.67899 -4.381386,-0.159143 -6.967019,0.702965 -10.204977,3.402566 -1.370376,1.142531 -1.392736,1.151263 -1.466937,0.572843 -0.215019,-1.676125 2.58842,-4.981755 5.444881,-6.420246 2.592097,-1.305359 4.157239,-1.638397 7.734586,-1.645798 2.727014,-0.0056 3.301893,0.06177 4.454765,0.522342 5.443103,2.174543 10.347101,8.228588 11.679751,14.418788 0.46061,2.13954 0.4477,9.192699 -0.0202,11.025992 -0.43896,1.71997 -2.08719,5.18795 -3.3819,7.11572 -2.147316,3.19726 -6.838783,7.1207 -8.555733,7.1551 -0.655582,0.0131 -0.723559,0.0535 -0.349832,0.20785 0.396417,0.16369 0.278385,0.2738 -0.811759,0.75729 -3.306589,1.46648 -7.652139,2.06315 -11.248668,1.54449 z"
       id="path417" />
    <path
       style="fill:#ffffff;stroke-width:0.231931"
       d="m 80.553215,118.18293 c -2.82898,-0.45057 -7.600406,-2.31012 -10.023075,-3.90624 -1.740401,-1.14663 -5.402068,-4.69799 -6.665051,-6.46428 -3.671674,-5.13485 -4.783443,-13.239322 -2.720453,-19.831316 2.201281,-7.033888 6.689804,-12.09443 13.189343,-14.870199 1.400317,-0.598036 1.993044,-0.708856 4.311364,-0.806083 2.57273,-0.107897 5.872664,0.22841 6.116768,0.62338 0.05986,0.09685 -1.061738,0.51759 -2.492438,0.934969 -5.327565,1.554211 -7.90699,2.902881 -10.286065,5.378142 -1.653145,1.719982 -2.772538,3.26195 -3.665123,5.048723 -1.525138,3.053012 -1.638239,3.638625 -1.638239,8.48249 0,3.990779 0.05013,4.551724 0.531132,5.943314 1.729405,5.00335 6.40729,9.3838 11.237,10.52252 1.943427,0.45821 6.785161,0.45162 8.757787,-0.0119 4.621649,-1.08602 9.175903,-5.143 10.864736,-9.678428 1.106486,-2.971508 1.129737,-8.448437 0.04811,-11.331956 -1.132251,-3.018468 -4.316816,-6.736618 -6.817938,-7.960302 -1.116761,-0.54638 -1.690007,-0.659937 -3.806505,-0.75405 -4.318111,-0.192009 -6.823593,0.598819 -10.029514,3.165703 -1.699949,1.361098 -1.741197,1.379286 -1.814819,0.800236 -0.126513,-0.99505 1.023121,-2.960745 2.583524,-4.417425 1.552889,-1.449666 3.747243,-2.648129 5.90182,-3.223324 1.898536,-0.506841 5.901942,-0.687984 7.558845,-0.342016 4.514392,0.942622 9.371446,5.353296 11.884336,10.792121 1.41149,3.054978 1.71805,4.735895 1.71805,9.420363 0,2.269436 -0.11178,4.679318 -0.2484,5.355298 -0.34033,1.6839 -2.70381,6.4659 -4.11069,8.31713 -2.222295,2.92416 -6.357558,6.24456 -7.785749,6.25153 -0.543035,0.003 -0.640247,0.0586 -0.383619,0.2209 0.467712,0.29574 -1.751842,1.27108 -4.260209,1.87206 -2.146852,0.51437 -6.177164,0.75182 -7.954925,0.46867 z"
       id="path419" />
    <path
       style="fill:#ffffff;stroke-width:0.231931"
       d="m 79.90033,118.0677 c -2.954728,-0.58916 -7.392978,-2.38761 -9.558328,-3.87319 -1.625509,-1.11521 -5.299337,-4.73526 -6.476913,-6.3821 -2.121413,-2.9668 -3.4891,-7.17139 -3.722869,-11.444959 -0.425316,-7.77527 2.931662,-15.42313 8.813701,-20.079353 2.136631,-1.691358 5.471619,-3.428509 7.35924,-3.833331 1.527344,-0.327557 6.980673,-0.152708 7.991863,0.256241 0.670625,0.271216 0.560302,0.325734 -3.049707,1.507077 -2.060026,0.674126 -4.471186,1.607019 -5.358134,2.073097 -2.864423,1.505212 -5.626917,4.398228 -7.449487,7.801461 -1.585174,2.959951 -1.77112,3.902979 -1.757226,8.911805 0.01206,4.345696 0.0219,4.430952 0.711468,6.1591 0.919148,2.303512 2.143896,4.112922 4.055537,5.991522 1.790608,1.75967 3.485994,2.85133 5.717622,3.68159 2.076216,0.77244 6.898928,0.98876 9.565206,0.42904 2.909643,-0.61081 5.362887,-1.98741 7.660315,-4.29847 3.551176,-3.57225 4.503706,-6.192483 4.348811,-11.962782 -0.08291,-3.088859 -0.160204,-3.638389 -0.689258,-4.900654 -1.273052,-3.037371 -4.293048,-6.584426 -6.572933,-7.720061 -1.60919,-0.801557 -4.437451,-1.109342 -7.102592,-0.772939 -2.585006,0.326288 -4.698613,1.27428 -7.03756,3.15648 -1.566997,1.260994 -1.626046,1.28661 -1.696092,0.735769 -0.190884,-1.501093 2.108502,-4.527383 4.58122,-6.02948 0.711748,-0.432364 2.128038,-1.073574 3.147312,-1.424912 1.688497,-0.582015 2.162457,-0.640226 5.332193,-0.654888 l 3.478969,-0.01609 2.232861,1.092995 c 3.772244,1.846531 7.038291,5.300022 9.028171,9.546319 1.54264,3.291914 1.84309,4.892841 1.84309,9.821002 0,2.34679 -0.11426,4.756671 -0.25391,5.355301 -0.38435,1.64755 -2.80024,6.45939 -4.10518,8.17648 -2.087727,2.74709 -6.36046,6.24798 -7.625493,6.24798 -0.311898,0 -0.505055,0.10037 -0.429242,0.22304 0.219057,0.35444 -1.611813,1.16427 -4.004222,1.77116 -2.802509,0.71091 -6.705231,0.90902 -8.978433,0.45575 z"
       id="path421" />
    <path
       style="fill:#ffffff;stroke-width:0.231931"
       d="m 80.132261,118.15151 c -3.318741,-0.6593 -8.177015,-2.73171 -10.456965,-4.46067 -2.311137,-1.75261 -5.900219,-5.66333 -6.864904,-7.4801 -4.416386,-8.317297 -3.390757,-18.876192 2.56103,-26.365887 2.286543,-2.877375 5.383999,-5.236393 8.827631,-6.723115 1.7554,-0.757861 1.765072,-0.759158 5.585311,-0.74904 2.640712,0.007 4.04253,0.104902 4.52266,0.31588 0.683588,0.300381 0.636798,0.325127 -2.66721,1.4106 -1.849652,0.607671 -3.975722,1.378582 -4.724601,1.713136 -3.883926,1.735105 -7.528904,5.697117 -9.338637,10.150899 -0.805008,1.981137 -1.162732,6.192043 -0.827771,9.744007 0.226629,2.403197 0.332807,2.785429 1.34008,4.82417 0.922178,1.8665 1.425531,2.54472 3.205659,4.31928 2.236997,2.23001 3.718543,3.20677 6.170507,4.06815 1.320818,0.464 1.96721,0.53104 5.218454,0.54118 3.210395,0.01 3.929872,-0.0578 5.33442,-0.50284 4.467539,-1.41551 8.76062,-5.56681 10.124165,-9.789804 0.615244,-1.905455 0.846987,-6.641881 0.439473,-8.982011 -0.614649,-3.529573 -4.065352,-8.221651 -7.236087,-9.83924 -1.997455,-1.019025 -6.418434,-1.104846 -9.40445,-0.182559 -1.316157,0.406519 -3.671772,1.826968 -5.577648,3.363353 l -0.753777,0.607642 0.0022,-0.783501 c 0.0045,-1.628904 2.41851,-4.633687 4.868377,-6.059854 0.57403,-0.334166 1.878643,-0.895559 2.899141,-1.247539 1.695944,-0.584948 2.156309,-0.641082 5.355159,-0.652971 l 3.499709,-0.01301 2.222562,1.102817 c 3.7433,1.857396 6.955431,5.246213 8.973111,9.466668 1.54193,3.225325 1.86697,4.943014 1.86697,9.866152 0,2.333217 -0.10898,4.750357 -0.24217,5.371417 -0.33773,1.57478 -2.72189,6.37933 -4.00957,8.08008 -2.000798,2.64262 -6.441303,6.35295 -7.603188,6.35295 -0.24059,0 -0.437434,0.10225 -0.437434,0.22722 0,0.39748 -1.850283,1.18965 -4.150487,1.77697 -2.525614,0.64487 -6.826694,0.90602 -8.7217,0.52957 z"
       id="path423" />
    <path
       style="fill:#ffffff;stroke-width:0.231931"
       d="m 80.160569,118.17261 c -2.963811,-0.53857 -7.843336,-2.57836 -10.19666,-4.26252 -2.269412,-1.62411 -5.963431,-5.5795 -7.074721,-7.5753 -2.026835,-3.64006 -2.977941,-7.968815 -2.746328,-12.499316 0.474947,-9.290274 5.809841,-17.122614 14.125802,-20.73857 1.676252,-0.728869 1.717351,-0.734252 5.515702,-0.72242 2.59844,0.0081 4.050216,0.10846 4.52266,0.312663 0.678694,0.29335 0.593192,0.335899 -3.478969,1.731277 -2.349624,0.805129 -4.797863,1.810035 -5.600021,2.298588 -3.595665,2.189936 -7.040033,6.758716 -8.082541,10.721085 -0.529496,2.01251 -0.527621,8.889687 0.0029,10.726701 0.714268,2.473152 1.937836,4.436312 4.169364,6.689562 1.775489,1.79278 2.418668,2.27047 4.291818,3.1876 1.851951,0.90674 2.554743,1.12035 4.406694,1.33936 2.468378,0.29192 5.747646,0.13578 7.623358,-0.36297 4.6404,-1.2339 9.235395,-5.65534 10.616627,-10.21562 0.335635,-1.108126 0.420171,-2.171107 0.41502,-5.218454 -0.0058,-3.435972 -0.06083,-3.964359 -0.53867,-5.172919 -1.210526,-3.061692 -4.647661,-7.089046 -6.900691,-8.085667 -1.54863,-0.685034 -4.323322,-0.951235 -6.772658,-0.649762 -2.469785,0.303991 -4.481305,1.182495 -6.951515,3.035982 l -1.782199,1.337247 -0.07265,-0.682472 c -0.04429,-0.416029 0.169804,-1.127941 0.548382,-1.823512 1.300268,-2.389021 4.006936,-4.473012 7.159816,-5.512679 1.6901,-0.557313 2.225785,-0.619548 5.468571,-0.635329 l 3.594935,-0.0175 2.158038,1.131699 c 4.560532,2.391595 8.161477,6.808748 10.043737,12.320315 0.52286,1.531017 0.55445,1.934063 0.55445,7.073905 0,6.090256 0.0827,5.685376 -2.01418,9.857086 -1.29587,2.57806 -2.61451,4.35571 -4.701744,6.33838 -1.789888,1.70022 -4.330814,3.5187 -4.916603,3.5187 -0.171566,0 -0.508695,0.19676 -0.749175,0.43724 -0.552701,0.5527 -2.637284,1.33757 -4.762581,1.79317 -1.994294,0.42752 -6.326641,0.60599 -7.875992,0.32445 z"
       id="path425" />
    <path
       style="fill:#ffffff;stroke-width:0.231931"
       d="m 79.437575,118.01553 c -1.767204,-0.3786 -4.867926,-1.5161 -6.858906,-2.51619 -2.138062,-1.07398 -3.942908,-2.50272 -6.481136,-5.13056 -1.854258,-1.91972 -2.667841,-2.96817 -3.397211,-4.37794 -1.957099,-3.78277 -2.782052,-7.695831 -2.562605,-12.155366 0.430497,-8.748428 5.256431,-16.333941 12.816799,-20.145737 2.572186,-1.296848 3.751426,-1.515644 7.517322,-1.394766 2.124064,0.06818 3.585811,0.219964 3.93908,0.409028 0.524835,0.280883 0.311446,0.387354 -3.250059,1.621635 -4.97503,1.724155 -6.349573,2.449609 -8.485343,4.478382 -2.086465,1.981937 -3.477655,3.864932 -4.594994,6.219387 -1.139378,2.400895 -1.340943,3.810581 -1.239717,8.670231 0.08552,4.105571 0.100639,4.212904 0.834038,5.920855 1.880703,4.379811 6.006779,8.120791 10.382162,9.413161 1.948274,0.57546 7.535042,0.57488 9.497057,-9.3e-4 2.601256,-0.7635 4.487695,-1.93224 6.749662,-4.18171 1.718266,-1.70878 2.291219,-2.46618 3.079473,-4.0708 0.86951,-1.770034 0.995168,-2.246643 1.230142,-4.665777 0.354816,-3.652921 0.02034,-6.693207 -0.954091,-8.672566 -1.437739,-2.920529 -4.265761,-6.034204 -6.456758,-7.109008 -0.922337,-0.452458 -1.544929,-0.551472 -3.906846,-0.621327 -4.392421,-0.129908 -6.455132,0.512613 -9.830593,3.062168 l -1.739485,1.313869 -0.07265,-0.698677 c -0.158914,-1.528257 2.123307,-4.456484 4.670238,-5.992196 2.41913,-1.458653 4.271577,-1.926476 8.158634,-2.06041 l 3.47897,-0.119872 2.363296,1.190237 c 4.683066,2.35855 8.349516,6.748301 10.292336,12.322777 0.46032,1.320767 0.53406,2.076296 0.62375,6.390793 0.11645,5.601439 -0.0169,6.428689 -1.56014,9.676889 -1.38624,2.91781 -2.98887,5.17761 -5.107169,7.20142 -1.679196,1.60429 -4.409786,3.62522 -4.898247,3.62522 -0.102119,0 -0.556487,0.25164 -1.009701,0.5592 -2.640074,1.7916 -9.194183,2.70262 -13.227307,1.83858 z"
       id="path427" />
    <path
       style="fill:#ffffff;stroke-width:0.231931"
       d="m 79.437575,118.03235 c -1.790724,-0.4022 -4.910776,-1.55444 -6.858906,-2.53301 -2.146645,-1.07829 -3.94581,-2.50572 -6.5287,-5.17979 -2.20109,-2.27879 -2.617421,-2.8465 -3.635807,-4.95776 -1.789978,-3.7109 -2.227454,-5.769299 -2.207342,-10.385926 0.01463,-3.35721 0.0907,-4.103133 0.619863,-6.077948 1.15528,-4.311452 3.17484,-7.861669 6.183834,-10.870663 2.059065,-2.059066 3.950723,-3.385207 6.716072,-4.708283 l 1.998977,-0.956407 4.058798,0.0021 c 3.009743,0.0016 4.204571,0.08444 4.622792,0.320631 0.53523,0.302269 0.381467,0.381964 -3.015107,1.562706 -5.544641,1.927469 -6.680536,2.561897 -9.261418,5.172756 -2.291853,2.318473 -3.692685,4.437151 -4.700039,7.10854 -0.477401,1.266014 -0.517348,1.76001 -0.51423,6.359167 0.0033,4.86731 0.018,5.020821 0.615083,6.421136 1.741159,4.083501 5.32201,7.633421 9.469744,9.387931 1.18884,0.50289 1.5833,0.53955 5.798282,0.53889 5.20968,-9.3e-4 5.826847,-0.15484 8.925562,-2.22739 3.25552,-2.17742 5.701484,-5.39295 6.526881,-8.580401 0.546463,-2.110285 0.541411,-7.476147 -0.0088,-9.367032 -0.910384,-3.128567 -4.395249,-7.422462 -7.004117,-8.630153 -1.156648,-0.535434 -1.750114,-0.646209 -3.878434,-0.723942 -4.219377,-0.154105 -6.532093,0.568674 -9.895499,3.092579 l -1.739485,1.305312 -0.07265,-0.710599 c -0.164377,-1.607771 2.470915,-4.881769 5.018414,-6.234706 2.5737,-1.366853 4.025618,-1.708683 7.817229,-1.840437 l 3.485739,-0.121124 1.964646,0.978078 c 4.407868,2.194411 7.367843,5.288689 9.632613,10.069683 1.54403,3.259461 1.77511,4.682106 1.68166,10.353076 l -0.0784,4.754586 -0.83649,2.00506 c -1.24759,2.99042 -2.89682,5.61844 -4.800992,7.65031 -1.80074,1.92149 -4.027202,3.72298 -5.37328,4.34766 -0.446468,0.20719 -0.867214,0.45032 -0.934994,0.54028 -0.268117,0.35585 -2.799626,1.36917 -4.536189,1.81575 -2.533276,0.65146 -7.078349,0.80827 -9.255346,0.31932 z"
       id="path429" />
    <path
       style="fill:#ffffff;stroke-width:0.231931"
       d="m 80.248227,118.25557 c -3.081781,-0.60952 -7.937591,-2.66308 -10.28134,-4.34804 -1.475652,-1.06087 -5.011442,-4.51004 -6.09278,-5.94351 -1.02982,-1.36519 -2.603447,-4.90099 -3.154474,-7.08784 -0.438093,-1.738646 -0.521936,-2.69138 -0.519237,-5.900316 0.0029,-3.443367 0.06645,-4.056279 0.634239,-6.116127 1.97664,-7.170984 6.268818,-12.354739 12.846434,-15.514909 l 2.044497,-0.982265 h 4.058798 c 3.00431,0 4.203462,0.0823 4.615618,0.316793 0.526521,0.299553 0.352227,0.389945 -3.202923,1.661069 -2.06786,0.739353 -4.301442,1.609699 -4.963516,1.934104 -3.460735,1.695698 -7.209689,6.044992 -8.674724,10.063854 -0.476205,1.306318 -0.591047,2.135978 -0.697988,5.042546 -0.253729,6.896147 0.597397,9.388221 4.559615,13.350441 2.598456,2.59846 4.904534,3.94826 7.525077,4.40461 2.350418,0.4093 7.78568,0.18163 9.449647,-0.39583 3.881586,-1.34706 7.848349,-5.16418 9.527828,-9.168401 0.473936,-1.129955 0.517722,-1.61045 0.524471,-5.755542 l 0.0074,-4.52266 -0.832221,-1.739485 c -1.496529,-3.127998 -4.50253,-6.349047 -6.841462,-7.330897 -1.173832,-0.492757 -5.319936,-0.693311 -7.16992,-0.34682 -1.78634,0.334571 -4.206007,1.499299 -6.262144,3.01434 l -1.62352,1.196271 -0.07265,-0.701371 c -0.175574,-1.694985 2.455152,-4.881503 5.225245,-6.329181 2.527032,-1.320652 3.740877,-1.595774 7.603627,-1.723386 3.388037,-0.111929 3.514889,-0.09881 4.853191,0.501743 4.390496,1.970214 7.716635,5.27807 10.089025,10.033583 1.65012,3.307715 1.75684,3.917295 1.75684,10.035245 v 5.450381 l -0.75522,1.87347 c -2.31413,5.74062 -6.389544,10.2342 -11.74795,12.95337 -2.886677,1.46487 -5.116864,1.99567 -8.834511,2.10267 -1.658309,0.0477 -3.27603,0.0352 -3.594935,-0.0279 z"
       id="path431" />
    <path
       style="fill:#ffffff;stroke-width:0.231931"
       d="m 79.436467,118.07242 c -2.936087,-0.68474 -6.931228,-2.39743 -9.159481,-3.92662 -1.374929,-0.94358 -3.46495,-2.87784 -5.290161,-4.89592 -1.731533,-1.9145 -3.469173,-5.25997 -4.221603,-8.12784 -0.631126,-2.405512 -0.859628,-6.99776 -0.47964,-9.639404 0.741725,-5.156408 3.40069,-10.369682 7.057849,-13.837902 1.992204,-1.889281 3.624192,-2.996241 6.34344,-4.30269 1.986697,-0.954499 2.108687,-0.981597 4.782851,-1.062453 3.127687,-0.09457 5.503024,0.104132 6.053086,0.506347 0.313015,0.228882 -0.220698,0.484984 -3.166698,1.519538 -1.948739,0.684344 -4.361744,1.665803 -5.362234,2.181021 -3.152264,1.623306 -6.718371,5.653004 -8.19828,9.26405 -0.827107,2.018178 -1.176211,6.163823 -0.838776,9.960541 0.225466,2.536879 0.330906,2.952284 1.187236,4.677382 1.677852,3.38006 5.50666,6.90376 9.018634,8.29996 1.229053,0.48862 1.708923,0.53543 5.520815,0.53859 3.446645,0.003 4.397244,-0.0711 5.450386,-0.424 3.682867,-1.23409 7.393447,-4.52149 9.241193,-8.18726 0.955118,-1.894874 1.265447,-4.060848 1.154932,-8.060992 -0.08165,-2.955322 -0.149285,-3.389072 -0.721093,-4.624255 -0.870158,-1.879654 -2.388936,-3.939848 -4.141221,-5.617486 -1.788481,-1.712289 -2.479075,-2.089015 -4.401187,-2.400896 -4.520853,-0.733551 -8.101897,0.166809 -11.870049,2.984416 -0.866876,0.6482 -1.623552,1.178546 -1.681502,1.178546 -0.05795,0 -0.104384,-0.3392 -0.103187,-0.753777 0.0052,-1.816392 2.56319,-4.852369 5.288066,-6.276307 2.495983,-1.304325 3.729153,-1.583938 7.581944,-1.719155 l 3.47897,-0.122098 1.539374,0.69836 c 4.626171,2.098731 8.490849,6.232196 10.536669,11.269501 1.11152,2.736847 1.30572,4.278522 1.21953,9.681517 l -0.0755,4.732776 -0.98564,2.20334 c -1.88759,4.21958 -4.545847,7.66715 -7.846572,10.17644 -1.956923,1.4877 -5.424964,3.19474 -7.634909,3.75805 -2.43896,0.62169 -7.319964,0.80514 -9.277252,0.34868 z"
       id="path433" />
    <path
       style="fill:#ffffff;stroke-width:0.231931"
       d="m 51.14085,110.62541 c -0.382687,-0.17382 -1.24959,-0.43488 -1.926454,-0.58013 -0.995166,-0.21357 -1.274952,-0.38061 -1.462132,-0.87293 -0.372635,-0.9801 -1.047745,-5.8186 -2.110267,-15.124212 -0.948074,-8.303274 -0.993127,-9.004862 -0.994151,-15.481463 l -0.0011,-6.78404 -3.015106,-0.0062 c -1.658309,-0.0034 -5.937441,-0.157589 -9.509183,-0.342667 -3.571742,-0.185078 -6.95504,-0.338837 -7.51844,-0.341686 -0.563399,-0.0028 -0.98023,-0.04931 -0.92629,-0.103253 0.168461,-0.168461 14.55906,-4.254128 17.556561,-4.984522 1.567328,-0.381907 4.896366,-1.068823 7.397861,-1.526479 4.034116,-0.738054 6.309315,-1.272307 14.895866,-3.497784 1.200219,-0.311074 2.222804,-0.525002 2.27241,-0.475395 0.128093,0.128093 -3.452116,3.344687 -5.382351,4.835704 -2.623878,2.026826 -6.141552,3.978893 -9.103303,5.051704 -1.426853,0.516838 -1.44957,0.538688 -1.44957,1.394214 0,0.47803 0.31553,3.047181 0.701181,5.709222 1.92285,13.272968 2.44582,19.438623 2.230071,26.291917 -0.173993,5.52689 -0.337045,7.19905 -0.699431,7.17284 -0.143222,-0.0104 -0.573513,-0.16106 -0.956199,-0.33488 z"
       id="path435" />
    <path
       style="fill:#ffffff;stroke-width:0.231931"
       d="m 49.590083,113.1636 c -1.137445,-0.35 -1.207124,-0.45179 -1.471729,-2.14985 -0.141796,-0.90995 -0.114987,-0.99673 0.272971,-0.88354 0.236616,0.069 0.880309,0.24187 1.430427,0.38409 0.550118,0.14222 1.176332,0.3122 1.391588,0.37772 0.215255,0.0655 0.13045,-0.0382 -0.188456,-0.23054 -0.318906,-0.19233 -0.997305,-0.42039 -1.507553,-0.50682 -0.510249,-0.0864 -1.097121,-0.24596 -1.304157,-0.35453 C 47.530681,109.44224 47.077367,106.7578 45.820467,95.630981 44.644878,85.223967 44.469343,82.612112 44.563936,76.934529 l 0.08583,-5.151794 -3.248536,-0.004 c -1.786695,-0.0022 -6.223054,-0.156949 -9.858577,-0.343937 -3.635523,-0.186989 -6.923149,-0.348376 -7.305836,-0.358639 -0.6946,-0.01863 -0.694808,-0.01906 -0.12102,-0.247997 0.758754,-0.302744 11.164221,-3.284934 14.848657,-4.255601 3.376365,-0.889506 4.988396,-1.239479 10.204977,-2.215507 2.104776,-0.393807 6.682594,-1.446906 10.172931,-2.340221 3.490336,-0.893314 6.391096,-1.579177 6.446133,-1.524139 0.170836,0.170835 -3.401724,3.361889 -5.76552,5.149834 -2.06891,1.564896 -5.858153,3.644286 -8.940111,4.905986 -1.028147,0.420906 -1.217639,0.592171 -1.217639,1.100518 0,0.33112 0.412039,3.549448 0.915646,7.15184 1.859112,13.298614 2.209936,17.672249 2.004399,24.988338 -0.178696,6.36074 -0.269924,7.18267 -0.800057,7.20818 -0.240591,0.0116 -0.273901,0.0613 -0.09059,0.1353 0.357467,0.14424 0.369418,0.70876 0.03529,1.66723 -0.290675,0.83384 -0.636932,0.88765 -2.339836,0.36364 z"
       id="path437" />
    <path
       style="fill:#ffffff;stroke-width:0.231931"
       d="m 49.479296,113.15148 c -1.063845,-0.37702 -1.128211,-0.47286 -1.36123,-2.02674 -0.124313,-0.82898 -0.08896,-1.07495 0.155292,-1.0804 0.221116,-0.005 0.19966,-0.0751 -0.07134,-0.23321 -0.533069,-0.31106 -0.980295,-2.45866 -1.688706,-8.10926 C 44.90645,88.884835 44.708741,86.532192 44.612959,79.08857 l -0.09252,-7.18987 -2.951944,-0.05497 c -3.64874,-0.06795 -17.742401,-0.742296 -17.854392,-0.854287 -0.339552,-0.339552 17.155158,-5.006861 23.53598,-6.279023 3.472818,-0.692385 9.02462,-1.941405 12.337334,-2.775599 3.312714,-0.834193 6.102335,-1.516716 6.19916,-1.516716 0.615462,0 -5.267807,5.078338 -7.626766,6.583295 -1.404938,0.896315 -5.646131,3.024275 -7.308883,3.667132 -0.718266,0.277698 -0.985708,0.511004 -0.985708,0.859893 0,0.263338 0.420459,3.517593 0.934353,7.231677 1.511916,10.927113 1.866305,14.554994 2.003177,20.506495 0.128453,5.585413 -0.169152,11.524183 -0.584441,11.662613 -0.119055,0.0397 -0.164992,0.26899 -0.102078,0.50957 0.06291,0.24059 -0.0084,0.80961 -0.158574,1.26451 -0.312812,0.94783 -0.813213,1.03832 -2.478369,0.44819 z m 1.649957,-2.38788 c -0.121184,-0.11853 -0.533442,-0.27603 -0.916129,-0.34999 -0.651163,-0.12584 -0.643725,-0.11315 0.115966,0.19788 0.998091,0.40863 1.077926,0.42381 0.800163,0.15211 z m -1.790702,-0.6204 c -0.07707,-0.0771 -0.277111,-0.0853 -0.444536,-0.0183 -0.185018,0.074 -0.130062,0.129 0.140126,0.14013 0.244493,0.0101 0.381478,-0.0447 0.30441,-0.12182 z"
       id="path439" />
    <path
       style="fill:#ffffff;stroke-width:0.231931"
       d="m 49.517331,113.17578 c -0.510249,-0.18382 -0.949796,-0.33579 -0.97677,-0.33771 -0.142983,-0.0102 -0.550217,-1.97013 -0.49865,-2.39992 0.03317,-0.2765 -0.05834,-0.71852 -0.203369,-0.98228 -0.493879,-0.8982 -1.176429,-5.67262 -2.534257,-17.727044 -0.455824,-4.046682 -0.614794,-6.858935 -0.70797,-12.52429 L 44.476159,71.8987 41.082497,71.832654 c -4.218228,-0.08209 -17.239323,-0.714152 -17.368245,-0.843074 -0.116383,-0.116383 2.351321,-0.871312 8.292266,-2.536801 7.755077,-2.174065 9.670181,-2.643248 16.235191,-3.977473 3.50796,-0.712932 8.863321,-1.928406 11.900805,-2.701053 3.037481,-0.772646 5.572761,-1.354743 5.633954,-1.293549 0.156352,0.156352 -3.411422,3.438647 -5.358367,4.929611 -2.018287,1.545597 -4.813226,3.148136 -8.059612,4.621152 -1.371294,0.622212 -2.493261,1.267731 -2.493261,1.434488 0,0.166757 0.412997,3.316253 0.91777,6.998881 1.912946,13.956082 1.959606,14.50334 1.961434,23.005104 0.0014,6.45353 -0.06484,8.06916 -0.390964,9.53748 -0.215949,0.97228 -0.457837,1.9377 -0.537527,2.14537 -0.178264,0.46455 -1.048788,0.47326 -2.29861,0.023 z m 1.04369,-2.66052 c -0.191343,-0.12366 -0.452266,-0.22483 -0.579828,-0.22483 -0.127562,0 -0.07538,0.10117 0.115966,0.22483 0.191343,0.12366 0.452266,0.22483 0.579828,0.22483 0.127562,0 0.07538,-0.10117 -0.115966,-0.22483 z"
       id="path441" />
    <path
       style="fill:#ffffff;stroke-width:0.231931"
       d="m 49.438439,113.2146 c -0.948729,-0.3435 -1.138145,-0.66355 -1.414347,-2.38982 -0.119083,-0.74427 -0.374316,-1.97943 -0.567188,-2.7448 -0.348924,-1.38464 -1.337515,-8.864443 -2.25306,-17.046948 -0.335863,-3.00172 -0.517828,-6.496438 -0.605704,-11.632875 L 44.472527,72.058012 41.660509,71.92433 c -1.54661,-0.07353 -5.36906,-0.240328 -8.494334,-0.370673 -7.372069,-0.307465 -9.65534,-0.482449 -9.250614,-0.708945 0.530444,-0.296852 12.32517,-3.651796 16.556449,-4.709391 1.275622,-0.318838 4.719802,-1.064717 7.653733,-1.65751 2.933931,-0.592793 8.041946,-1.750756 11.351146,-2.573253 3.309201,-0.822496 6.113043,-1.463342 6.230763,-1.424103 0.312745,0.104249 -3.26037,3.400173 -5.544886,5.114731 -2.193122,1.645964 -4.840497,3.158845 -7.767785,4.439014 -1.07246,0.469011 -2.082871,0.982234 -2.245359,1.140496 -0.239052,0.232832 -0.183544,1.104004 0.290837,4.564674 2.250095,16.414732 2.556168,20.075623 2.354821,28.16585 -0.131178,5.27079 -0.402261,7.88563 -0.955774,9.21927 -0.197968,0.47698 -1.225961,0.51556 -2.401067,0.0901 z"
       id="path443" />
    <path
       style="fill:#ffffff;stroke-width:0.231931"
       d="m 49.401365,113.20416 c -0.842066,-0.30179 -1.347198,-1.20048 -1.381007,-2.45697 -0.0086,-0.3189 -0.170061,-1.08897 -0.358846,-1.71125 -0.408362,-1.34606 -1.028613,-5.57122 -1.842704,-12.552523 -0.99793,-8.557843 -1.285622,-12.738232 -1.286836,-18.698754 l -0.0012,-5.710602 -3.536952,-0.153033 C 24.370116,71.201776 23.390799,71.138363 23.96283,70.818239 c 0.501708,-0.28077 9.819299,-2.945574 14.858104,-4.249374 2.183694,-0.565035 6.57958,-1.5637 9.768635,-2.219255 3.189056,-0.655556 8.293789,-1.811445 11.343853,-2.568641 3.050063,-0.757197 5.645166,-1.343523 5.766897,-1.302946 0.318068,0.106022 -3.226227,3.382457 -5.526526,5.108858 -2.144676,1.609607 -4.846687,3.181796 -7.530225,4.381531 -2.693703,1.204279 -2.648043,1.163354 -2.581242,2.313528 0.03221,0.554592 0.412369,3.617575 0.844794,6.80663 1.836784,13.545926 2.084452,16.782681 1.890031,24.70068 -0.142262,5.79378 -0.334916,7.81489 -0.867479,9.10061 -0.212725,0.51356 -0.409122,0.63701 -0.990945,0.62286 -0.3991,-0.01 -1.09093,-0.14856 -1.537398,-0.30856 z"
       id="path445" />
    <path
       style="fill:#ffffff;stroke-width:0.231931"
       d="m 49.469571,113.22832 c -0.408955,-0.15278 -0.84115,-0.38215 -0.960432,-0.50971 -0.391194,-0.41835 -1.647171,-7.54145 -2.351473,-13.336052 C 44.834733,88.498192 44.722324,87.067985 44.597042,79.526469 L 44.473318,72.078705 40.617214,71.925053 C 27.072553,71.385346 23.3864,71.140845 23.959449,70.820151 c 0.564721,-0.316034 11.800087,-3.508653 16.10176,-4.575444 2.011812,-0.498918 6.006144,-1.394197 8.876293,-1.989508 2.87015,-0.595311 7.763515,-1.702195 10.874145,-2.459741 3.11063,-0.757546 5.767682,-1.377357 5.904556,-1.377357 0.64601,0 -4.363709,4.470914 -7.037586,6.280682 -0.829155,0.561199 -3.07309,1.804208 -4.986523,2.762242 -3.319999,1.662286 -3.482256,1.775872 -3.550908,2.485753 -0.03957,0.409129 0.351137,3.905493 0.86823,7.769698 1.507498,11.265429 1.663952,12.954053 1.800601,19.434151 0.13363,6.336873 -0.123522,11.282553 -0.687377,13.220083 -0.279816,0.9615 -0.366961,1.0473 -1.106625,1.08954 -0.44159,0.0252 -1.137491,-0.0791 -1.546444,-0.23193 z"
       id="path447" />
    <path
       style="fill:#ffffff;stroke-width:0.231931"
       d="M 49.488515,113.28384 C 49.089981,113.16533 48.655337,112.93748 48.52264,112.77752 48.10788,112.27753 46.904982,105.5427 46.171612,99.614489 44.899867,89.334311 44.727666,87.135547 44.599279,79.537893 L 44.473618,72.101551 35.051013,71.681694 C 29.86858,71.450772 25.158747,71.195315 24.584717,71.114012 l -1.043691,-0.147824 0.695794,-0.283661 c 2.528166,-1.030682 15.939999,-4.584674 22.554919,-5.976812 5.75814,-1.211824 8.240336,-1.774626 14.34521,-3.252569 2.385961,-0.577622 4.43814,-1.016878 4.5604,-0.976125 0.307952,0.102651 -3.343466,3.522093 -5.422512,5.078019 -2.103561,1.574272 -4.266861,2.840635 -7.483831,4.380926 -1.934214,0.926106 -2.490256,1.299099 -2.602334,1.745652 -0.07839,0.312343 0.290775,3.880958 0.820371,7.930256 0.529599,4.049298 1.059497,8.145128 1.177557,9.101845 0.959305,7.773982 0.923151,20.222381 -0.06873,23.663491 -0.275651,0.9563 -0.361581,1.0405 -1.101857,1.07965 -0.44159,0.0234 -1.128965,-0.0545 -1.5275,-0.17302 z"
       id="path449" />
    <path
       style="fill:#ffffff;stroke-width:0.231931"
       d="m 49.169434,113.12994 c -0.756233,-0.3832 -0.839364,-0.53825 -1.215306,-2.26678 -0.876898,-4.03185 -1.77577,-10.43108 -2.866899,-20.409957 -0.216917,-1.98381 -0.443147,-6.668643 -0.526395,-10.90077 L 44.414842,72.130631 35.485488,71.733604 C 25.68474,71.297832 23.506059,71.135653 23.805716,70.864171 c 0.657179,-0.595388 15.798503,-4.636389 23.870523,-6.370698 3.818969,-0.820522 9.350336,-2.073149 12.291927,-2.783615 2.941592,-0.710466 5.495067,-1.291757 5.674394,-1.291757 0.457814,0 -1.81768,2.267373 -4.296734,4.281398 -2.455486,1.994878 -4.240529,3.110472 -7.961971,4.975974 -1.50186,0.752859 -2.865263,1.53103 -3.029786,1.729268 -0.317746,0.382858 -0.295327,0.606082 1.353906,13.482111 0.929172,7.254287 1.172498,10.696076 1.171566,16.571468 -9.28e-4,5.36965 -0.308661,9.69814 -0.788703,11.09085 -0.269045,0.78056 -0.386859,0.87144 -1.203937,0.92866 -0.52551,0.0368 -1.246466,-0.10923 -1.717467,-0.34789 z"
       id="path451" />
    <path
       style="fill:#ffffff;stroke-width:0.231931"
       d="M 49.169434,113.12994 C 48.412628,112.74645 48.330554,112.593 47.957089,110.86316 47.018204,106.51438 46.153404,100.42685 45.090581,90.685135 44.873324,88.69378 44.647701,83.983 44.562934,79.668398 l -0.148092,-7.537767 -1.391588,-0.05525 C 36.60912,71.820708 25.856615,71.285212 24.857152,71.170672 c -0.679314,-0.07785 -1.148975,-0.226707 -1.04369,-0.330791 0.585939,-0.579257 15.563731,-4.558588 24.312281,-6.459338 4.081991,-0.886872 9.64721,-2.147408 12.367156,-2.801191 2.719944,-0.653783 5.05565,-1.151931 5.190455,-1.106996 0.348461,0.116154 -3.897552,4.044591 -6.034738,5.583376 -0.987012,0.710655 -3.409406,2.133567 -5.383098,3.162029 -1.973691,1.028461 -3.715008,2.040814 -3.869592,2.249673 -0.16469,0.222515 -0.234487,0.774522 -0.168575,1.33323 0.06187,0.524418 0.577152,4.658589 1.14508,9.187047 1.309284,10.439817 1.507947,13.00369 1.507709,19.457929 -2.07e-4,5.6361 -0.280593,9.62804 -0.77749,11.06941 -0.282,0.81802 -0.391947,0.90509 -1.215749,0.96278 -0.52551,0.0368 -1.246466,-0.10923 -1.717467,-0.34789 z"
       id="path453" />
    <path
       style="fill:#ffffff;stroke-width:0.231931"
       d="m 49.25526,113.20195 c -0.399265,-0.17686 -0.791118,-0.42704 -0.870786,-0.55595 -0.494925,-0.8008 -1.694012,-8.21296 -2.670949,-16.51048 -0.924483,-7.852001 -1.182084,-11.715575 -1.185884,-17.786206 -0.0017,-2.782464 -0.0664,-5.294998 -0.14368,-5.583409 -0.07728,-0.28841 -0.362871,-0.566763 -0.634644,-0.618562 -0.271772,-0.0518 -4.575581,-0.269502 -9.56402,-0.483784 -4.988439,-0.214283 -9.424125,-0.468952 -9.85708,-0.565932 L 23.541026,70.9213 24.228245,70.643179 c 0.990068,-0.400686 5.31656,-1.65453 10.79338,-3.127989 5.266867,-1.416974 7.136576,-1.866669 12.756221,-3.068076 2.104776,-0.449974 6.943573,-1.54537 10.752882,-2.434215 3.809307,-0.888844 7.031067,-1.581063 7.159464,-1.538263 0.348022,0.116006 -3.889896,4.037513 -6.008558,5.559948 -1.014725,0.729165 -3.50807,2.201821 -5.540767,3.272569 l -3.695811,1.946815 -0.06843,1.143853 c -0.03764,0.62912 0.399218,4.844578 0.970792,9.367687 1.34846,10.670963 1.532915,13.040542 1.532915,19.692492 0,5.67252 -0.269072,9.58343 -0.763564,11.09826 -0.255873,0.78384 -0.360449,0.86287 -1.207852,0.91271 -0.510248,0.03 -1.254395,-0.0901 -1.653658,-0.26702 z"
       id="path455" />
    <path
       style="fill:#ffffff;stroke-width:0.231931"
       d="m 49.25526,113.20195 c -0.399265,-0.17686 -0.796564,-0.43585 -0.882888,-0.57553 -0.343268,-0.55542 -1.531438,-7.40132 -2.19796,-12.664034 -1.230592,-9.716492 -1.443425,-12.349717 -1.616327,-19.997602 -0.09293,-4.110322 -0.233201,-7.537559 -0.311724,-7.616082 -0.192086,-0.192086 -1.512443,-0.276777 -10.732289,-0.6884 -8.280056,-0.369666 -10.015323,-0.514883 -9.700569,-0.811799 0.621018,-0.585823 14.2639,-4.268832 22.804686,-6.156315 3.763086,-0.831628 9.539555,-2.138847 12.836597,-2.904932 3.297045,-0.766084 6.099012,-1.358086 6.226595,-1.315558 0.285547,0.09518 -2.35976,2.685732 -4.605845,4.510503 -1.802881,1.4647 -3.78917,2.690109 -8.021253,4.948574 l -2.725193,1.454309 v 0.96446 c 0,0.530453 0.461838,4.71641 1.026308,9.302128 1.350283,10.969609 1.524936,13.238064 1.524936,19.806328 0,5.67252 -0.269072,9.58343 -0.763564,11.09826 -0.255873,0.78384 -0.360449,0.86287 -1.207852,0.91271 -0.510248,0.03 -1.254395,-0.0901 -1.653658,-0.26702 z"
       id="path457" />
    <path
       style="fill:#ffffff;stroke-width:0.231931"
       d="m 49.175821,113.12994 c -0.97377,-0.49734 -1.113579,-0.91855 -1.955039,-5.89009 -1.561991,-9.228581 -2.429203,-18.038289 -2.68817,-27.308176 -0.115336,-4.128532 -0.261088,-7.557809 -0.323893,-7.620614 -0.06281,-0.0628 -4.164699,-0.306943 -9.11532,-0.542528 -9.637053,-0.458599 -11.604397,-0.616266 -11.288858,-0.904709 0.72183,-0.659845 13.735665,-4.153345 24.205236,-6.497776 4.528459,-1.014049 10.267752,-2.319997 12.753985,-2.902106 2.486234,-0.582109 4.665792,-1.029466 4.843461,-0.994127 0.191334,0.03806 -0.327826,0.693483 -1.273386,1.607619 -3.468544,3.353268 -5.580439,4.840041 -10.84594,7.635537 l -3.219304,1.709154 0.145328,1.861807 c 0.07993,1.023994 0.557992,5.201618 1.062359,9.283609 1.2539,10.148195 1.398905,12.098651 1.401661,18.85356 0.0024,5.86646 -0.253035,9.57833 -0.767605,11.1548 -0.247888,0.75944 -0.361165,0.84448 -1.201418,0.90193 -0.547072,0.0374 -1.258174,-0.10533 -1.733097,-0.34789 z"
       id="path459" />
    <path
       style="fill:#ffffff;stroke-width:0.231931"
       d="m 49.807811,115.90111 c -0.631537,-0.0814 -0.662813,-0.13678 -0.97853,-1.73293 -0.09576,-0.48413 0.578677,-0.54116 1.715015,-0.14503 0.654039,0.228 0.729506,0.33755 0.599175,0.86974 -0.201714,0.82369 -0.5759,1.10614 -1.33566,1.00822 z"
       id="path461" />
    <path
       style="fill:#ffffff;stroke-width:0.231931"
       d="m 49.704193,118.45046 c -0.255179,-0.16298 -0.74777,-1.82725 -0.761021,-2.5712 -0.0046,-0.25582 0.06221,-0.26197 0.340103,-0.0313 0.190175,0.15783 0.661195,0.24067 1.046712,0.18409 0.620717,-0.0911 0.68439,-0.0477 0.55634,0.37924 -0.385729,1.28609 -0.919538,2.20693 -1.182134,2.03921 z"
       id="path463" />
    <path
       style="fill:#ffffff;stroke-width:0.231931"
       d="m 49.225651,113.18385 c -0.424186,-0.18436 -0.857746,-0.59718 -0.988581,-0.9413 -0.643802,-1.69334 -2.191485,-12.10048 -3.119647,-20.977587 -0.193394,-1.849652 -0.467275,-6.807183 -0.608625,-11.016736 -0.141349,-4.209553 -0.334754,-7.736861 -0.429787,-7.838463 -0.09503,-0.101601 -4.285296,-0.386495 -9.311695,-0.633097 -9.965675,-0.48893 -11.288653,-0.60417 -10.939884,-0.952939 0.623465,-0.623465 14.522922,-4.324486 25.157013,-6.698581 4.554277,-1.016756 10.061889,-2.266788 12.239137,-2.777847 2.177251,-0.511059 4.118966,-0.929199 4.314922,-0.929199 0.536977,0 0.08227,0.536881 -2.337227,2.759616 -2.52046,2.315488 -5.413731,4.266839 -9.710066,6.5489 l -3.215987,1.708221 0.143739,1.739484 c 0.07906,0.956717 0.557603,5.13148 1.063438,9.277252 1.248973,10.236459 1.392771,12.187616 1.39554,18.935806 0.0025,6.17426 -0.276576,10.09185 -0.809941,11.36838 -0.287732,0.68864 -0.421494,0.7736 -1.205229,0.76553 -0.484869,-0.005 -1.221573,-0.15684 -1.63712,-0.33744 z"
       id="path465" />
    <path
       style="fill:#ffffff;stroke-width:0.231931"
       d="m 49.431509,117.65772 c -0.134607,-0.42039 -0.303226,-1.28619 -0.374708,-1.92401 -0.07148,-0.63781 -0.186785,-1.3423 -0.256228,-1.56553 -0.151066,-0.48562 0.582309,-0.5499 1.725839,-0.15126 0.814711,0.28401 0.844238,0.367 0.461019,1.29582 -0.148161,0.3591 -0.248463,0.74338 -0.222893,0.85397 0.08222,0.35558 -0.448997,1.7248 -0.773732,1.9943 -0.249585,0.20714 -0.365107,0.10319 -0.559297,-0.50329 z m 0.723633,-1.72971 c -0.159453,-0.0643 -0.420376,-0.0643 -0.579829,0 -0.159452,0.0643 -0.02899,0.11698 0.289915,0.11698 0.318905,0 0.449366,-0.0526 0.289914,-0.11698 z"
       id="path467" />
    <path
       style="fill:#ffffff;stroke-width:0.231931"
       d="m 49.017959,113.08271 c -0.62187,-0.37919 -0.78479,-0.68274 -1.088745,-2.02853 -1.864116,-8.25356 -3.605791,-25.474442 -3.631684,-35.908442 -0.0032,-1.275622 -0.08629,-2.446049 -0.184726,-2.60095 -0.126852,-0.199622 -2.878073,-0.41932 -9.447648,-0.754437 -9.967071,-0.508426 -11.185548,-0.618799 -10.823895,-0.980452 0.627224,-0.627224 13.612699,-4.097122 24.632379,-6.582111 4.273334,-0.963657 9.775363,-2.21506 12.226731,-2.780895 5.248468,-1.211474 5.328552,-1.220295 4.847825,-0.533962 -0.681212,0.972567 -4.472718,4.193738 -6.637648,5.639184 -1.211841,0.809102 -3.507961,2.168332 -5.102489,3.02051 -1.594527,0.852178 -3.040948,1.687052 -3.214268,1.855276 -0.357188,0.346686 -0.231778,1.719642 1.261163,13.806848 0.760842,6.159947 0.856838,7.576082 0.963014,14.20643 0.121952,7.615671 -0.112719,11.789421 -0.748407,13.310841 -0.297647,0.71237 -0.409767,0.77827 -1.322756,0.77748 -0.574589,-4.6e-4 -1.307612,-0.18994 -1.728846,-0.44679 z"
       id="path469" />
    <path
       style="fill:#ffffff;stroke-width:0.231931"
       d="m 49.322159,117.21677 c -0.188961,-0.68812 -0.402998,-1.74688 -0.475639,-2.3528 -0.124327,-1.03705 -0.100352,-1.10167 0.408707,-1.10167 0.29743,0 0.87904,0.11792 1.292467,0.26204 0.82195,0.28653 0.814867,0.18912 0.18065,2.48438 -0.188276,0.68138 -0.504387,1.40094 -0.70247,1.59903 -0.32558,0.32558 -0.393129,0.24005 -0.703715,-0.89098 z"
       id="path471" />
    <path
       style="fill:#ffffff;stroke-width:0.231931"
       d="m 49.448559,117.79523 c -0.226734,-0.56759 -0.735645,-3.23776 -0.741236,-3.88915 -0.0023,-0.27219 2.059841,-0.0304 2.367881,0.27763 0.302797,0.30279 -0.420853,3.12284 -0.977867,3.81073 -0.377153,0.46576 -0.383975,0.46367 -0.648778,-0.19921 z"
       id="path473" />
    <path
       style="fill:#ffffff;stroke-width:0.231931"
       d="m 49.527931,118.18614 c -0.163951,-0.26527 -0.82236,-3.5691 -0.82236,-4.12651 0,-0.2877 0.208084,-0.3342 1.063861,-0.23775 1.46279,0.16488 1.616049,0.37357 1.266974,1.72519 -0.563126,2.18043 -1.153543,3.21337 -1.508475,2.63907 z"
       id="path475" />
    <path
       style="fill:#ffffff;stroke-width:0.231931"
       d="m 49.423949,117.876 c -0.229453,-0.5993 -0.712723,-3.17794 -0.716626,-3.82379 -0.0021,-0.35229 1.11679,-0.38224 1.982575,-0.0531 0.547819,0.20828 0.605181,0.32562 0.47569,0.97307 -0.319176,1.59588 -0.629733,2.48055 -1.053441,3.00088 l -0.442819,0.5438 z"
       id="path477" />
    <path
       style="fill:#ffffff;stroke-width:0.231931"
       d="m 50.417159,113.53836 c -2.13018,-0.32801 -2.286608,-0.62654 -3.222131,-6.14894 -1.640671,-9.684929 -2.891282,-22.963986 -2.899318,-30.785147 -0.0037,-3.557226 -0.101233,-4.089193 -0.778324,-4.24324 -0.271772,-0.06183 -4.512341,-0.324425 -9.423486,-0.583542 -9.259209,-0.488525 -10.517951,-0.603715 -10.308064,-0.94332 0.241549,-0.390834 7.459527,-2.463624 15.99038,-4.591963 6.677903,-1.666051 25.453036,-5.847692 25.835061,-5.754044 0.268565,0.06583 -0.08193,0.529922 -1.250344,1.65555 -3.229121,3.110883 -6.008106,5.048331 -11.284113,7.86704 -1.358897,0.725992 -2.528648,1.470932 -2.599445,1.655422 -0.141976,0.369986 0.364126,5.175261 1.514567,14.380333 0.731857,5.855824 0.753923,6.291795 0.76304,15.075531 0.01206,11.62212 -0.199474,12.7456 -2.337823,12.41632 z"
       id="path479" />
    <path
       style="fill:#ffffff;stroke-width:0.231931"
       d="m 49.240938,113.29621 c -0.860978,-0.34681 -1.185712,-1.15423 -1.797841,-4.47019 -1.661319,-8.999518 -2.81924,-20.387323 -3.110561,-30.591458 -0.08625,-3.020948 -0.232575,-5.568397 -0.325174,-5.660996 -0.211628,-0.211628 -3.285375,-0.440083 -12.11681,-0.900575 -7.264967,-0.378813 -8.321967,-0.487301 -8.108769,-0.832261 0.242786,-0.392836 7.315582,-2.437151 15.530571,-4.488943 6.985586,-1.744734 25.897752,-5.961786 26.29717,-5.863767 0.27132,0.06658 -0.07371,0.5262 -1.248591,1.663239 -3.151058,3.049571 -5.774801,4.878467 -11.338511,7.903574 l -2.525124,1.372963 0.13542,2.322834 c 0.07448,1.277558 0.502621,5.349537 0.951427,9.048841 1.155215,9.521934 1.291342,11.489247 1.291894,18.670469 4.64e-4,6.62017 -0.233135,9.90988 -0.800219,11.2671 -0.3063,0.73308 -0.407229,0.79221 -1.329015,0.77862 -0.548649,-0.008 -1.22629,-0.10683 -1.505867,-0.21945 z"
       id="path481" />
    <path
       style="fill:#ffffff;stroke-width:0.231931"
       d="m 49.240938,113.29621 c -0.815403,-0.32845 -1.16904,-1.11663 -1.663979,-3.70868 -1.679238,-8.79434 -3.274364,-24.350512 -3.280098,-31.988562 -0.0011,-1.476838 -0.0665,-3.221872 -0.145317,-3.877851 -0.139074,-1.157508 -0.168091,-1.196568 -0.983692,-1.32415 -0.462215,-0.0723 -4.806416,-0.349538 -9.65378,-0.616078 -4.847364,-0.26654 -9.074312,-0.572253 -9.393218,-0.679361 -0.570259,-0.191528 -0.564855,-0.201221 0.327467,-0.58733 1.152029,-0.498485 7.505038,-2.30454 13.356479,-3.797024 6.616142,-1.687531 27.367649,-6.336448 27.805011,-6.229099 0.270926,0.0665 -0.07481,0.526929 -1.248878,1.663184 -3.142618,3.041403 -5.75418,4.86385 -11.332889,7.908521 l -2.519502,1.375058 0.129919,2.203347 c 0.07146,1.211841 0.49644,5.282235 0.944413,9.04532 1.163399,9.772875 1.292615,11.650076 1.293165,18.786435 4.64e-4,6.62017 -0.233135,9.90988 -0.800219,11.2671 -0.3063,0.73308 -0.407229,0.79221 -1.329015,0.77862 -0.548649,-0.008 -1.22629,-0.10683 -1.505867,-0.21945 z"
       id="path483" />
    <path
       style="fill:#ffffff;stroke-width:0.231931"
       d="m 49.413071,117.85188 c -0.241907,-0.63626 -0.7075,-3.05032 -0.7075,-3.66832 0,-0.4857 0.95395,-0.57617 1.976384,-0.18744 0.57261,0.2177 0.603913,0.30162 0.454209,1.21764 -0.193579,1.18448 -1.013737,3.18716 -1.305238,3.18716 -0.115011,0 -0.303046,-0.24706 -0.417855,-0.54904 z"
       id="path485" />
    <path
       style="fill:#ffffff;stroke-width:0.231931"
       d="m 49.240938,113.29621 c -0.805808,-0.32458 -1.15717,-1.10227 -1.675588,-3.70868 -1.583481,-7.96112 -3.228755,-23.897817 -3.280348,-31.774582 -0.01128,-1.72209 -0.09105,-3.59618 -0.177265,-4.164645 -0.144481,-0.952626 -0.220333,-1.046372 -0.968517,-1.197002 -0.446468,-0.08989 -4.82056,-0.390989 -9.720204,-0.669117 -4.899645,-0.278129 -9.126593,-0.590596 -9.393218,-0.694373 -0.438092,-0.170516 -0.397593,-0.226041 0.420577,-0.57663 1.283765,-0.550098 7.23464,-2.238189 13.474391,-3.822296 7.35611,-1.867519 27.21475,-6.316501 27.681774,-6.201618 0.279941,0.06886 -0.08254,0.545763 -1.357572,1.786129 -3.053698,2.970655 -6.255422,5.165837 -12.030907,8.248692 l -1.709962,0.91275 0.143083,2.203347 c 0.0787,1.211841 0.504302,5.23005 0.945792,8.929355 1.123417,9.413246 1.287622,11.839575 1.285458,18.99406 -0.0021,6.53804 -0.237982,9.82409 -0.802612,11.17544 -0.3063,0.73308 -0.407229,0.79221 -1.329015,0.77862 -0.548649,-0.008 -1.22629,-0.10683 -1.505867,-0.21945 z"
       id="path487" />
    <path
       style="fill:#ffffff;stroke-width:0.231931"
       d="m 49.240938,113.29621 c -0.804899,-0.32422 -1.169335,-1.10748 -1.671617,-3.59271 -1.54001,-7.61977 -2.894032,-20.421241 -3.262698,-30.846861 -0.10826,-3.061493 -0.265541,-5.737831 -0.349514,-5.947418 -0.199488,-0.497893 -0.805029,-0.561218 -10.790934,-1.128484 -8.5538,-0.485913 -9.600175,-0.590864 -9.383669,-0.941178 0.282346,-0.456845 9.926116,-3.200081 18.313023,-5.209264 5.454324,-1.306649 22.999515,-5.212194 23.415153,-5.212194 0.665515,0 0.01069,0.80183 -2.371245,2.903552 -2.728855,2.407835 -5.181262,4.066971 -9.421114,6.3737 l -3.197236,1.739485 0.143835,2.087381 c 0.07911,1.14806 0.500737,5.16627 0.936954,8.929355 1.153415,9.950112 1.273418,11.723125 1.276065,18.853556 0.0025,6.74163 -0.266566,10.47978 -0.833199,11.57553 -0.289996,0.56079 -0.470065,0.6477 -1.315728,0.635 -0.538865,-0.008 -1.208499,-0.10683 -1.488076,-0.21945 z"
       id="path489" />
  </g>
</svg>
