<?xml version="1.0" standalone="no"?><!-- Generator: Gravit.io --><svg xmlns="http://www.w3.org/2000/svg" xmlns:xlink="http://www.w3.org/1999/xlink" style="isolation:isolate" viewBox="0 0 189.024 189.024" width="189.024" height="189.024"><defs><clipPath id="_clipPath_gjluYydYhCR1rW934L2JyrhK6ePrqdHy"><rect width="189.024" height="189.024"/></clipPath></defs><g clip-path="url(#_clipPath_gjluYydYhCR1rW934L2JyrhK6ePrqdHy)"><path d=" M 0 0 L 189.024 0 L 189.024 189.024 L 0 189.024 L 0 0 Z " fill-rule="evenodd" fill="rgb(254,254,254)"/><path d=" M 142.845 102.6 C 145.966 104.586 149.655 106.005 153.912 106.288 C 158.168 106.572 162.425 106.288 166.398 105.153 C 170.37 103.734 173.775 101.464 176.329 98.91 C 178.883 96.073 180.302 92.667 180.585 88.694 C 180.87 85.289 180.585 81.6 179.167 77.911 C 178.032 74.222 176.329 71.101 173.775 68.263 C 171.221 65.709 168.667 64.006 165.83 63.155 C 161.006 61.737 156.182 62.02 151.074 63.439 C 146.533 64.858 143.128 66.845 140.574 69.399 C 138.021 72.804 136.034 76.209 135.183 79.614 C 134.332 83.303 134.615 87.843 136.034 92.667 C 137.169 96.924 139.44 100.045 142.845 102.6 Z " fill-rule="evenodd" fill="rgb(250,175,59)"/><path d=" M 85.524 73.087 C 83.538 73.56 81.552 74.033 79.565 74.506 C 77.295 75.358 75.592 76.209 74.173 77.06 C 71.619 79.046 69.633 81.317 68.214 84.154 C 66.795 86.991 66.227 90.113 66.227 93.235 C 66.227 96.356 67.079 99.194 68.498 101.748 C 69.916 104.586 72.187 106.572 75.024 107.991 C 78.146 109.693 81.551 110.261 84.956 109.693 C 88.645 109.41 91.767 107.991 94.321 105.437 C 97.158 102.883 98.861 99.194 99.145 94.938 C 99.428 90.681 98.294 86.991 95.74 83.871 C 94.037 81.6 92.05 80.181 90.064 79.614 C 88.078 79.046 86.091 79.046 83.537 79.614 C 81.551 79.898 79.565 80.749 77.862 82.168 C 77.055 82.924 76.393 83.681 75.875 84.438 C 75.686 84.343 75.497 84.249 75.308 84.154 C 75.592 81.6 77.011 79.33 79.565 77.627 C 81.834 76.209 84.673 75.358 87.794 75.074 C 91.483 74.79 94.604 75.925 97.726 78.195 C 100.28 80.465 102.55 83.303 103.969 86.708 C 105.388 90.397 105.955 94.086 105.671 97.775 C 105.388 101.748 103.969 105.153 101.982 108.274 C 99.428 111.964 96.023 114.801 91.767 116.787 C 85.808 119.341 79.565 119.058 73.321 115.936 C 66.795 112.815 62.822 108.274 60.836 101.748 C 59.417 96.356 59.701 91.248 61.688 85.857 C 63.957 80.465 67.362 76.492 72.187 73.939 C 74.74 72.519 77.295 71.952 79.848 71.952 C 80.983 71.952 82.97 72.236 85.524 73.087 Z " fill="rgb(55,53,53)"/><path d=" M 102.55 56.061 C 103.401 59.278 104.253 62.494 105.104 65.709 C 105.955 69.399 107.09 72.236 108.509 74.79 C 108.604 74.6 108.698 74.411 108.793 74.222 C 109.454 68.831 110.117 63.439 110.779 58.047 C 110.968 58.047 111.157 58.047 111.347 58.047 C 113.333 64.006 114.468 68.831 114.752 71.952 C 115.035 76.492 113.901 79.614 111.347 81.6 C 110.212 82.452 108.793 82.735 107.374 82.168 C 105.955 81.884 104.536 81.032 103.685 79.614 C 102.266 76.776 101.415 73.939 101.131 70.817 C 100.847 67.696 101.415 62.588 102.55 56.061 Z " fill="rgb(55,53,53)"/><path d=" M 81.551 95.505 C 82.781 96.426 83.849 96.833 84.908 96.495 C 85.564 95.619 86.884 93.026 84.956 92.384 C 84.105 91.816 83.254 91.816 82.402 92.384 C 81.551 93.235 81.267 94.086 81.551 95.505 Z " fill="rgb(55,53,53)"/><path d=" M 155.331 46.98 C 155.331 48.967 156.182 50.102 157.6 50.954 C 159.019 51.521 160.439 51.521 161.29 50.67 C 163.559 48.683 163.559 46.697 161.573 44.427 C 159.886 42.739 154.722 44.548 155.331 46.98 Z " fill="rgb(55,53,53)"/><path d=" M 146.818 44.143 C 150.506 45.846 152.209 47.832 152.493 49.819 C 152.493 51.521 151.358 53.224 149.371 55.21 C 147.29 56.723 145.209 58.237 143.128 59.75 C 142.371 60.412 141.615 61.075 140.858 61.737 C 145.02 65.142 149.182 68.547 153.344 71.952 C 153.249 72.236 153.155 72.52 153.06 72.804 C 149.182 71.006 145.304 69.209 141.426 67.412 C 138.305 65.993 136.318 64.574 135.467 63.155 C 134.9 61.737 134.9 60.601 135.751 59.75 C 138.305 57.102 140.858 54.453 143.413 51.805 C 143.696 51.521 143.98 51.238 144.264 50.954 C 143.696 50.859 143.128 50.765 142.561 50.67 C 140.858 50.576 139.156 50.481 137.454 50.386 C 134.994 50.859 132.535 51.332 130.075 51.805 C 129.224 52.089 128.373 52.373 127.521 52.656 C 127.332 52.846 127.143 53.035 126.954 53.224 C 126.765 56.156 126.576 59.089 126.386 62.02 C 125.251 76.209 123.548 88.978 120.995 100.613 C 120.332 101.842 119.67 103.072 119.008 104.302 C 119.008 97.207 119.008 90.113 119.008 83.019 C 119.008 75.925 119.008 68.831 119.008 61.737 C 118.914 58.616 118.819 55.494 118.725 52.373 C 118.725 50.954 119.292 49.534 120.143 48.116 C 120.995 46.697 122.414 45.846 123.833 45.278 C 126.386 43.86 129.224 43.008 132.346 42.724 C 135.561 42.819 138.777 42.914 141.993 43.008 C 143.696 43.292 145.399 43.575 146.818 44.143 Z " fill="rgb(55,53,53)"/><path d=" M 90.064 39.603 C 89.496 42.157 89.496 44.143 90.347 45.562 C 90.632 46.413 90.915 46.697 91.483 46.98 C 92.618 47.265 94.037 46.98 95.456 46.129 C 96.875 45.278 98.861 44.143 100.847 42.157 C 100.942 42.157 101.036 42.157 101.131 42.157 C 99.428 46.98 96.591 49.534 92.335 50.102 C 89.78 50.386 88.078 49.251 86.659 46.413 C 85.24 43.292 85.24 40.17 86.375 36.481 C 87.794 32.225 90.347 29.671 94.037 28.82 C 95.172 28.536 96.196 28.709 96.875 29.387 C 98.01 30.239 98.294 31.657 97.726 33.644 C 97.158 35.914 96.023 37.9 94.321 39.319 C 93.469 40.17 92.335 40.738 91.483 40.738 C 90.915 40.738 90.632 40.454 90.347 40.17 C 90.253 39.981 90.158 39.792 90.064 39.603 Z " fill="rgb(55,53,53)"/><path d=" M 94.888 32.225 C 94.561 32.018 93.968 32.181 93.469 32.793 C 92.335 33.927 91.483 35.63 90.632 38.184 C 90.632 38.278 90.632 38.373 90.632 38.467 C 90.726 38.846 90.821 39.225 90.915 39.603 C 91.01 39.508 91.104 39.414 91.199 39.319 C 92.335 38.752 93.186 37.616 94.037 36.198 C 94.604 35.062 94.888 33.644 94.888 32.225 Z " fill="rgb(55,53,53)"/><path d=" M 73.889 21.726 C 75.308 24.28 76.443 26.549 76.727 28.536 C 77.578 32.793 77.862 37.333 77.862 41.873 C 77.862 44.049 77.862 46.224 77.862 48.399 C 77.957 49.251 78.051 50.102 78.146 50.954 C 78.24 51.238 78.335 51.521 78.429 51.805 C 78.525 51.805 78.619 51.805 78.714 51.805 C 81.078 50.954 83.443 50.102 85.808 49.251 C 85.902 49.441 85.997 49.63 86.091 49.819 C 84.862 50.954 83.632 52.089 82.402 53.224 C 80.983 54.642 79.281 55.21 77.862 55.493 C 77.39 55.399 76.917 55.304 76.443 55.21 C 75.308 54.359 74.457 52.94 73.606 50.954 C 73.322 49.156 73.039 47.359 72.754 45.562 C 72.849 41.873 72.943 38.185 73.038 34.495 C 73.228 31.374 73.417 28.253 73.606 25.131 C 73.7 23.996 73.795 22.861 73.889 21.726 Z " fill="rgb(55,53,53)"/><path d=" M 30.473 93.518 C 30.359 93.634 29.683 94.244 29.562 94.357 C 28.97 94.912 28.728 95.674 28.487 96.64 C 28.581 96.735 28.676 96.829 28.771 96.924 C 29.622 96.64 30.19 96.356 30.473 95.789 C 30.757 94.938 30.757 94.37 30.473 93.518 Z " fill="rgb(55,53,53)"/><path d=" M 28.487 97.492 C 28.203 98.91 28.487 99.478 29.338 99.761 C 29.906 99.572 30.474 99.383 31.041 99.194 C 31.703 98.815 32.365 98.437 33.027 98.059 C 33.121 98.153 33.216 98.248 33.31 98.343 C 33.027 98.721 32.743 99.099 32.459 99.478 C 31.324 100.897 30.19 101.464 29.054 101.18 C 27.919 100.897 27.068 100.045 26.784 98.626 C 26.5 97.492 26.5 96.356 26.784 95.221 C 27.068 93.802 27.919 92.951 28.771 92.384 C 30.19 91.532 31.041 91.532 31.892 92.384 C 32.459 93.235 32.407 94.346 31.892 95.505 C 31.272 96.901 30.19 97.811 28.771 97.527 C 28.676 97.527 28.581 97.492 28.487 97.492 Z " fill="rgb(55,53,53)"/><path d=" M 19.974 95.789 C 19.123 96.073 18.555 96.924 18.271 98.343 C 18.082 99.478 17.893 100.613 17.703 101.748 C 17.703 101.937 17.703 102.126 17.703 102.315 C 17.798 102.41 17.892 102.504 17.987 102.6 C 18.082 102.6 18.177 102.6 18.271 102.6 C 18.857 102.368 19.285 101.665 19.69 100.897 C 20.331 99.478 20.918 98.057 21.109 96.64 C 21.109 96.451 21.109 96.262 21.109 96.073 C 20.731 95.978 20.353 95.884 19.974 95.789 Z " fill="rgb(55,53,53)"/><path d=" M 21.392 89.262 C 21.392 88.411 21.677 88.127 22.244 88.127 C 22.811 88.127 23.095 88.411 23.095 88.978 C 23.379 90.681 23.663 92.384 23.663 93.802 C 23.568 94.748 23.474 95.694 23.379 96.64 C 23.474 97.207 23.568 97.775 23.663 98.343 C 23.947 99.478 24.23 100.613 24.514 101.748 C 24.419 101.748 24.325 101.748 24.23 101.748 C 23.852 100.802 23.474 99.856 23.095 98.91 C 22.906 99.383 22.717 99.856 22.528 100.329 C 21.94 101.481 21.115 102.477 20.257 103.451 C 19.123 104.869 17.987 104.869 16.852 104.018 C 16.569 103.734 16.284 103.451 16.001 102.6 C 15.717 101.18 16.284 99.478 17.136 97.775 C 17.987 95.505 19.123 94.654 20.541 95.221 C 20.731 95.316 20.92 95.41 21.109 95.505 C 21.203 94.937 21.298 94.369 21.392 93.802 C 21.392 92.288 21.392 90.775 21.392 89.262 Z " fill="rgb(55,53,53)"/><path d=" M 53.742 63.439 C 57.809 62.305 61.877 61.17 65.944 60.034 C 66.038 60.223 66.133 60.412 66.227 60.601 C 61.688 64.858 58.282 67.412 56.012 68.547 C 53.742 69.682 51.755 70.533 49.769 71.101 C 50.621 76.776 51.472 82.452 52.323 88.127 C 52.608 92.194 52.891 96.262 53.175 100.329 C 53.175 104.869 52.89 108.842 52.323 112.247 C 51.566 114.328 50.81 116.409 50.053 118.49 C 49.864 118.395 49.675 118.301 49.485 118.206 C 48.539 113.855 47.594 109.504 46.648 105.153 C 45.797 97.018 44.945 88.883 44.094 80.749 C 44.094 77.06 44.377 73.939 44.662 71.952 C 44.284 72.047 43.905 72.141 43.526 72.236 C 36.432 71.858 29.338 71.48 22.244 71.101 C 28.865 69.209 35.486 67.318 42.108 65.426 L 53.742 63.439 Z " fill="rgb(55,53,53)"/><defs><filter id="KSWRyNcHq7HPrZwZM2PGDHrpjVb5CiiX" x="-200%" y="-200%" width="400%" height="400%" filterUnits="objectBoundingBox" color-interpolation-filters="sRGB"><feGaussianBlur xmlns="http://www.w3.org/2000/svg" in="SourceGraphic" stdDeviation="8.587218125678056"/><feOffset xmlns="http://www.w3.org/2000/svg" dx="0" dy="0" result="pf_100_offsetBlur"/><feFlood xmlns="http://www.w3.org/2000/svg" flood-color="#FF00FF" flood-opacity="1"/><feComposite xmlns="http://www.w3.org/2000/svg" in2="pf_100_offsetBlur" operator="in" result="pf_100_dropShadow"/><feBlend xmlns="http://www.w3.org/2000/svg" in="SourceGraphic" in2="pf_100_dropShadow" mode="normal"/></filter></defs><g filter="url(#KSWRyNcHq7HPrZwZM2PGDHrpjVb5CiiX)"><g transform="matrix(0.983,0.182,-0.182,0.983,20.291,89.262)"><text transform="matrix(1,0,0,1,7.764,54.443)" style="font-family:'Segoe Script';font-weight:700;font-size:50px;font-style:normal;fill:#373535;stroke:none;">orava</text></g></g></g></svg>